<?xml version="1.0" encoding="UTF-8" standalone="no"?>
<svg
   xmlns:dc="http://purl.org/dc/elements/1.1/"
   xmlns:cc="http://creativecommons.org/ns#"
   xmlns:rdf="http://www.w3.org/1999/02/22-rdf-syntax-ns#"
   xmlns:svg="http://www.w3.org/2000/svg"
   xmlns="http://www.w3.org/2000/svg"
   xmlns:xlink="http://www.w3.org/1999/xlink"
   xmlns:sodipodi="http://sodipodi.sourceforge.net/DTD/sodipodi-0.dtd"
   xmlns:inkscape="http://www.inkscape.org/namespaces/inkscape"
   version="1.0"
   id="Ebene_1"
   x="0px"
   y="0px"
   width="256"
   height="256"
   viewBox="0 0 256 256"
   enable-background="new 0 0 612.302 193.34"
   xml:space="preserve"
   sodipodi:docname="play.svg"
   inkscape:version="1.0.2-2 (e86c870879, 2021-01-15)"
   inkscape:export-filename="C:\Projects\geoserver\src\release\installer\win\build\img\src\play.png"
   inkscape:export-xdpi="96"
   inkscape:export-ydpi="96"><metadata
   id="metadata294"><rdf:RDF><cc:Work
       rdf:about=""><dc:format>image/svg+xml</dc:format><dc:type
         rdf:resource="http://purl.org/dc/dcmitype/StillImage" /><dc:title /></cc:Work></rdf:RDF></metadata><defs
   id="defs292">
	
	
	

		
		
		
		
		
		
		
		
		
		
	
		<defs
   id="defs193">
			<filter
   id="Adobe_OpacityMaskFilter"
   filterUnits="userSpaceOnUse"
   x="-31.976999"
   y="-31.433001"
   width="256.28299"
   height="256.28299">
				<feColorMatrix
   type="matrix"
   values="1 0 0 0 0  0 1 0 0 0  0 0 1 0 0  0 0 0 1 0"
   id="feColorMatrix190" />
			</filter>
		</defs>
		<mask
   maskUnits="userSpaceOnUse"
   x="-31.977"
   y="-31.433"
   width="256.283"
   height="256.283"
   id="SVGID_4_">
			<g
   filter="url(#Adobe_OpacityMaskFilter)"
   id="g215">
				<rect
   x="32.070999"
   y="32.618"
   width="128.185"
   height="128.179"
   id="rect195" />
				<g
   enable-background="new    "
   id="g213">
					<path
   fill="#ffffff"
   d="m 74.216,116.232 c 10.716,-7.749 -7.75,-15.5 -12.309,-17.778 -4.558,-2.279 0,-6.838 4.787,-8.89 4.789,-2.051 3.177,13.009 8.89,7.294 5.471,-5.47 -9.345,-11.852 3.305,-19.491 12.653,-7.635 -5.584,-5.582 -5.584,-12.65 0,-7.067 7.979,-7.977 7.979,-13.449 0,-3.58 -6.162,-4.171 -10.424,-4.154 l -31.189,31.19 c -0.694,0.693 -1.335,1.418 -1.933,2.168 0.148,5.851 7.16,6.814 11.175,6.814 5.016,0 7.751,7.751 2.737,12.765 -5.014,5.016 -5.387,13.595 -2.114,16.866 2.203,2.206 1.443,6.312 0.708,8.771 l 5.916,5.912 c 1.621,-5.203 8.685,-8.588 18.056,-15.368"
   id="path197" />
					<path
   fill="#ffffff"
   d="m 93.543,41.044 c 8.619,-1.109 0.641,5.976 4.737,7.768 3.704,1.618 13.599,-3.339 14.686,-10.062 -4.831,-4.083 -10.832,-6.132 -16.809,-6.13 -2.662,0 -5.327,0.412 -7.891,1.224 -0.473,3.449 -0.092,7.893 5.277,7.2"
   id="path199" />
					<path
   fill="#ffffff"
   d="m 114.599,89.498 c -1.434,-5.905 -15.203,-8.056 -21.801,-3.249 -9.726,7.087 -11.281,20.726 -3.728,21.498 7.554,0.773 14.438,8.093 10.643,15.337 -3.793,7.244 4.584,24.899 13.775,12.095 9.192,-12.803 4.615,-15.301 5.34,-22.352 0.72,-7.048 9.363,-15.99 7.246,-18.594 -2.122,-2.604 -10.352,-0.11 -11.475,-4.735"
   id="path201" />
					<path
   fill="#ffffff"
   d="m 83.665,157.613 c 3.879,2.117 8.191,3.182 12.494,3.182 h 0.012 c 6.651,0 13.338,-2.534 18.402,-7.597 l 3.215,-3.213 c -5.481,-1.025 -24.537,4.611 -34.123,7.628"
   id="path203" />
					<path
   fill="#ffffff"
   d="m 138.319,107.358 c -10.275,3.558 -17.391,15.021 -11.461,16.601 5.588,1.488 11.523,-2.986 15.498,1.456 l 10.302,-10.302 c -1.985,-4.05 -5.178,-10.925 -14.339,-7.755"
   id="path205" />
					<path
   fill="#ffffff"
   d="m 105.108,65.492 c 2.338,-0.313 0.499,-2.935 -0.828,-3.516 -1.327,-0.582 -5.552,-0.283 -3.988,1.63 1.182,1.446 2.481,2.201 4.816,1.886"
   id="path207" />
					<path
   fill="#ffffff"
   d="m 154.772,96.18 c -0.018,-1.368 -5.071,-2.765 -6.405,-2.646 -1.329,0.125 -1.774,2.366 1.97,3.283 2.824,0.69 4.452,0.73 4.435,-0.637"
   id="path209" />
					<path
   fill="#ffffff"
   d="m 110.593,54.962 c -0.564,4.5 3.939,6.19 1.688,8.44 -2.251,2.25 -15.5,7.035 -12.382,8.44 8.325,3.748 -5.78,3.222 0,9.003 2.871,2.87 11.933,-2.198 10.974,-5.628 -0.27,-0.97 2.503,-4.625 4.721,-2.698 1.917,1.666 7.844,3.504 7.844,13.321 0,5.226 4.501,10.323 9.103,9.075 3.82,-1.037 4.46,-5.837 2.088,-7.598 -3.03,-2.249 5.093,-4.964 13.362,3.959 3.815,4.115 10.121,-0.905 11.415,-1.175 V 90.1 c -1.125,-4.326 -3.373,-8.424 -6.745,-11.798 L 121.155,46.8 c -5.802,0.603 -10.332,6.321 -10.562,8.162"
   id="path211" />
				</g>
			</g>
		</mask>
		
		
		
	<linearGradient
   id="linearGradient1493"
   gradientUnits="userSpaceOnUse"
   x1="-1.1152"
   y1="578.58588"
   x2="0.59909999"
   y2="578.58588"
   gradientTransform="matrix(62.1889,-26.3976,-26.3976,-62.1889,15385.853,36072.457)"><stop
     offset="0"
     style="stop-color:#0092C8"
     id="stop181-4" /><stop
     offset="1"
     style="stop-color:#00AFDD"
     id="stop183-2" /></linearGradient><clipPath
   id="SVGID_2_-0"><use
     xlink:href="#SVGID_1_-3"
     overflow="visible"
     id="use178-5"
     x="0"
     y="0"
     width="100%"
     height="100%" /></clipPath><clipPath
   id="SVGID_11_-1"><use
     xlink:href="#SVGID_10_-3"
     overflow="visible"
     id="use248-5"
     x="0"
     y="0"
     width="100%"
     height="100%" /></clipPath><clipPath
   id="SVGID_13_-4"><use
     xlink:href="#SVGID_12_-3"
     overflow="visible"
     id="use254-4"
     x="0"
     y="0"
     width="100%"
     height="100%" /></clipPath><clipPath
   id="SVGID_15_-7"><use
     xlink:href="#SVGID_14_-1"
     overflow="visible"
     id="use268-2"
     x="0"
     y="0"
     width="100%"
     height="100%" /></clipPath><clipPath
   id="SVGID_17_-7"><use
     xlink:href="#SVGID_16_-7"
     overflow="visible"
     id="use274-4"
     x="0"
     y="0"
     width="100%"
     height="100%" /></clipPath><path
   id="SVGID_1_-3"
   d="M 80,42.457 41.912,80.543 c -8.89,8.89 -8.89,23.442 0,32.337 L 80,150.965 c 8.892,8.894 23.45,8.895 32.342,0 l 38.086,-38.085 c 8.897,-8.896 8.894,-23.447 0.001,-32.337 L 112.341,42.457 c -4.447,-4.45 -10.309,-6.672 -16.169,-6.672 -5.862,0 -11.726,2.224 -16.172,6.672" /><rect
   id="SVGID_10_-3"
   x="32.082001"
   y="32.622002"
   width="128.177"
   height="128.17599" /><rect
   id="SVGID_12_-3"
   x="32.082001"
   y="32.622002"
   width="128.177"
   height="128.17599" /><rect
   id="SVGID_14_-1"
   x="32.082001"
   y="32.620998"
   width="124.887"
   height="87.036003" /><rect
   id="SVGID_16_-7"
   x="32.082001"
   y="32.620998"
   width="124.887"
   height="87.036003" /><clipPath
   id="SVGID_2_-0-3"><use
     xlink:href="#SVGID_1_-3"
     overflow="visible"
     id="use178-5-1"
     x="0"
     y="0"
     width="100%"
     height="100%" /></clipPath><clipPath
   id="SVGID_11_-1-3"><use
     xlink:href="#SVGID_10_-3"
     overflow="visible"
     id="use248-5-5"
     x="0"
     y="0"
     width="100%"
     height="100%" /></clipPath><clipPath
   id="SVGID_13_-4-0"><use
     xlink:href="#SVGID_12_-3"
     overflow="visible"
     id="use254-4-0"
     x="0"
     y="0"
     width="100%"
     height="100%" /></clipPath><clipPath
   id="SVGID_15_-7-4"><use
     xlink:href="#SVGID_14_-1"
     overflow="visible"
     id="use268-2-5"
     x="0"
     y="0"
     width="100%"
     height="100%" /></clipPath><clipPath
   id="SVGID_17_-7-5"><use
     xlink:href="#SVGID_16_-7"
     overflow="visible"
     id="use274-4-2"
     x="0"
     y="0"
     width="100%"
     height="100%" /></clipPath><path
   id="path1511-7"
   d="M 80,42.457 41.912,80.543 c -8.89,8.89 -8.89,23.442 0,32.337 L 80,150.965 c 8.892,8.894 23.45,8.895 32.342,0 l 38.086,-38.085 c 8.897,-8.896 8.894,-23.447 0.001,-32.337 L 112.341,42.457 c -4.447,-4.45 -10.309,-6.672 -16.169,-6.672 -5.862,0 -11.726,2.224 -16.172,6.672" /><rect
   id="rect1521-7"
   x="32.082001"
   y="32.622002"
   width="128.177"
   height="128.17599" /><rect
   id="rect1526-6"
   x="32.082001"
   y="32.622002"
   width="128.177"
   height="128.17599" /><rect
   id="rect1535-3"
   x="32.082001"
   y="32.620998"
   width="124.887"
   height="87.036003" /><rect
   id="rect1540-9"
   x="32.082001"
   y="32.620998"
   width="124.887"
   height="87.036003" /></defs><sodipodi:namedview
   pagecolor="#ffffff"
   bordercolor="#666666"
   borderopacity="1"
   objecttolerance="10"
   gridtolerance="10"
   guidetolerance="10"
   inkscape:pageopacity="0"
   inkscape:pageshadow="2"
   inkscape:window-width="1258"
   inkscape:window-height="1040"
   id="namedview290"
   showgrid="false"
   inkscape:zoom="1.551242"
   inkscape:cx="241.20364"
   inkscape:cy="96.669998"
   inkscape:window-x="476"
   inkscape:window-y="33"
   inkscape:window-maximized="0"
   inkscape:current-layer="Ebene_1"
   inkscape:document-rotation="0" />

<g
   id="g1197"
   transform="matrix(1.9354558,0,0,1.9354558,-57.664953,-58.945942)"><path
     fill="#0092c8"
     d="M 152.666,78.305 114.58,40.218 c -5.069,-5.066 -11.759,-7.597 -18.418,-7.597 -6.651,0 -13.338,2.536 -18.396,7.597 L 39.677,78.305 c -5.058,5.053 -7.597,11.73 -7.595,18.381 -0.002,6.658 2.526,13.357 7.598,18.429 l 38.085,38.086 c 5.058,5.06 11.745,7.598 18.401,7.597 h 0.012 c 6.651,0 13.336,-2.535 18.401,-7.597 l 38.084,-38.086 c 5.065,-5.066 7.599,-11.76 7.596,-18.414 0.004,-6.652 -2.535,-13.338 -7.593,-18.396"
     id="path171" /><g
     id="g188">
		<defs
   id="defs176">
			<path
   id="SVGID_1_"
   d="M 80,42.457 41.912,80.543 c -8.89,8.89 -8.89,23.442 0,32.337 L 80,150.965 c 8.892,8.894 23.45,8.895 32.342,0 l 38.086,-38.085 c 8.897,-8.896 8.894,-23.447 0.001,-32.337 L 112.341,42.457 c -4.447,-4.45 -10.309,-6.672 -16.169,-6.672 -5.862,0 -11.726,2.224 -16.172,6.672" />
		</defs>
		<clipPath
   id="SVGID_2_">
			<use
   xlink:href="#SVGID_1_"
   overflow="visible"
   id="use178"
   x="0"
   y="0"
   width="100%"
   height="100%" />
		</clipPath>
		
			<linearGradient
   id="SVGID_3_"
   gradientUnits="userSpaceOnUse"
   x1="-1.1152"
   y1="578.58588"
   x2="0.59909999"
   y2="578.58588"
   gradientTransform="matrix(62.1889,-26.3976,-26.3976,-62.1889,15385.853,36072.457)">
			<stop
   offset="0"
   style="stop-color:#0092C8"
   id="stop181" />
			<stop
   offset="1"
   style="stop-color:#00AFDD"
   id="stop183" />
		</linearGradient>
		<polygon
   clip-path="url(#SVGID_2_)"
   fill="url(#SVGID_3_)"
   points="-11.605,54.728 140.042,-9.643 203.951,140.918 52.304,205.288 "
   id="polygon186"
   style="fill:url(#SVGID_3_)" />
	</g><g
     opacity="0.25"
     id="g263">
			<g
   id="g261">
				<defs
   id="defs246">
					<rect
   id="SVGID_10_"
   x="32.082001"
   y="32.622002"
   width="128.177"
   height="128.17599" />
				</defs>
				<clipPath
   id="SVGID_11_">
					<use
   xlink:href="#SVGID_10_"
   overflow="visible"
   id="use248"
   x="0"
   y="0"
   width="100%"
   height="100%" />
				</clipPath>
				<g
   clip-path="url(#SVGID_11_)"
   id="g259">
					<defs
   id="defs252">
						<rect
   id="SVGID_12_"
   x="32.082001"
   y="32.622002"
   width="128.177"
   height="128.17599" />
					</defs>
					<clipPath
   id="SVGID_13_">
						<use
   xlink:href="#SVGID_12_"
   overflow="visible"
   id="use254"
   x="0"
   y="0"
   width="100%"
   height="100%" />
					</clipPath>
					<path
   clip-path="url(#SVGID_13_)"
   fill="#0092c8"
   d="M 96.166,160.795 C 89.509,160.799 82.822,158.259 77.765,153.2 L 39.681,115.113 C 34.606,110.043 32.079,103.346 32.082,96.684 32.079,90.033 34.62,83.356 39.677,78.306 L 77.765,40.22 c 5.057,-5.062 11.744,-7.6 18.399,-7.598 6.654,-0.003 13.349,2.531 18.416,7.598 l 38.085,38.086 c 5.06,5.058 7.6,11.743 7.594,18.396 0.005,6.654 -2.533,13.347 -7.594,18.411 L 114.58,153.2 c -5.065,5.066 -11.755,7.598 -18.408,7.595 z M 44.148,82.775 c -3.826,3.827 -5.741,8.853 -5.743,13.909 0.002,5.081 1.912,10.125 5.745,13.958 l 38.086,38.085 c 3.828,3.829 8.863,5.741 13.929,5.744 5.07,-0.003 10.106,-1.912 13.941,-5.744 l 38.084,-38.085 c 3.832,-3.833 5.741,-8.873 5.745,-13.941 -0.003,-5.067 -1.914,-10.098 -5.742,-13.927 L 110.106,44.69 c -3.835,-3.834 -8.873,-5.743 -13.943,-5.746 -5.067,10e-4 -10.1,1.917 -13.928,5.746 z"
   id="path257" />
				</g>
			</g>
		</g><g
     opacity="0.15"
     id="g283">
			<g
   id="g281">
				<defs
   id="defs266">
					<rect
   id="SVGID_14_"
   x="32.082001"
   y="32.620998"
   width="124.887"
   height="87.036003" />
				</defs>
				<clipPath
   id="SVGID_15_">
					<use
   xlink:href="#SVGID_14_"
   overflow="visible"
   id="use268"
   x="0"
   y="0"
   width="100%"
   height="100%" />
				</clipPath>
				<g
   clip-path="url(#SVGID_15_)"
   id="g279">
					<defs
   id="defs272">
						<rect
   id="SVGID_16_"
   x="32.082001"
   y="32.620998"
   width="124.887"
   height="87.036003" />
					</defs>
					<clipPath
   id="SVGID_17_">
						<use
   xlink:href="#SVGID_16_"
   overflow="visible"
   id="use274"
   x="0"
   y="0"
   width="100%"
   height="100%" />
					</clipPath>
					<path
   clip-path="url(#SVGID_17_)"
   fill="#ffffff"
   d="m 156.97,84.014 c -1.14,-2.049 -2.57,-3.976 -4.304,-5.71 L 114.58,40.22 C 109.511,35.151 102.821,32.621 96.163,32.623 89.511,32.622 82.824,35.157 77.766,40.22 L 39.677,78.304 c -5.057,5.055 -7.597,11.73 -7.595,18.381 -0.002,6.657 2.526,13.358 7.598,18.428 l 4.54,4.544 C 52.275,107.132 91.137,54.294 156.97,84.014"
   id="path277" />
				</g>
			</g>
		</g><text
     xml:space="preserve"
     style="font-size:66.6667px;line-height:1.25;font-family:FontAwesome;-inkscape-font-specification:FontAwesome;fill:#bce87d;fill-opacity:0.79919702;"
     x="79.677795"
     y="121.26304"
     id="text512"><tspan
       sodipodi:role="line"
       id="tspan510"
       x="79.677795"
       y="121.26304"
       style="font-size:66.6667px;fill:#bce87d;fill-opacity:0.79919702;"></tspan></text><text
     xml:space="preserve"
     style="font-size:53.9343px;line-height:1.25;font-family:FontAwesome;-inkscape-font-specification:FontAwesome;fill:#e1f7ba;fill-opacity:0.5;stroke-width:0.809014;"
     x="83.038292"
     y="117.08229"
     id="text512-4"><tspan
       sodipodi:role="line"
       id="tspan510-5"
       x="83.038292"
       y="117.08229"
       style="font-size:53.9343px;fill:#e1f7ba;fill-opacity:0.5;stroke-width:0.809014;"></tspan></text></g></svg>
