<?xml version="1.0" encoding="utf-8"?>
<svg xmlns="http://www.w3.org/2000/svg" viewBox="0.084 -0.012 61.8689 48.5971" width="16px" height="16px">
  <path d="M -96.13 84.47 C -98.582 81.854 -98.655 81.741 -98.214 81.246 C -97.515 80.462 -67.714 53.186 -67.294 52.936 C -66.924 52.722 -63.271 54.486 -62.472 55.264 C -62.166 55.562 -64.54 58.1 -77.492 71.314 C -85.953 79.949 -93.042 87.054 -93.232 87.094 C -93.429 87.137 -94.733 85.953 -96.13 84.462 L -96.13 84.47 Z M -102.813 77.519 C -104.135 76.19 -104.971 75.146 -104.887 74.929 C -104.736 74.536 -87.607 60.689 -87.287 60.699 C -86.892 60.713 -82.861 63.777 -82.861 64.062 C -82.861 64.362 -100.081 79.742 -100.421 79.742 C -100.521 79.742 -101.599 78.74 -102.817 77.516 L -102.813 77.519 Z M -109.052 71.129 C -110.087 69.973 -110.737 69.039 -110.597 68.909 C -109.875 68.235 -102.427 63.07 -102.181 63.073 C -101.781 63.078 -98.186 66.16 -98.186 66.499 C -98.186 66.915 -106.252 73.124 -106.793 73.124 C -107.053 73.124 -108.07 72.226 -109.052 71.129 Z M -114.185 65.861 C -115.667 64.362 -115.844 64.082 -115.508 63.77 C -115.026 63.322 -91.348 48.04 -90.868 47.86 C -90.489 47.723 -87.21 49.708 -87.21 50.075 C -87.21 50.337 -111.48 67.335 -112.07 67.485 C -112.305 67.545 -113.192 66.863 -114.185 65.858 L -114.185 65.861 Z M -98.395 63.447 C -99.372 62.636 -100.167 61.832 -100.161 61.661 C -100.155 61.49 -99.291 60.748 -98.243 60.01 C -97.194 59.273 -92.493 55.91 -87.793 52.536 C -83.096 49.162 -79.059 46.401 -78.823 46.401 C -78.191 46.401 -74.99 48.251 -75.093 48.558 C -75.241 49.003 -95.783 64.918 -96.213 64.918 C -96.436 64.92 -97.418 64.258 -98.396 63.446 L -98.395 63.447 Z M -118.955 61.064 C -120.122 59.83 -120.291 59.532 -119.986 59.254 C -119.722 59.013 -105.056 50.35 -103.286 49.388 C -102.993 49.229 -99.884 51.472 -99.983 51.77 C -100.112 52.156 -116.653 62.54 -117.143 62.54 C -117.377 62.54 -118.196 61.876 -118.964 61.064 L -118.955 61.064 Z M -83.495 61.163 C -84.568 60.393 -85.488 59.638 -85.539 59.486 C -85.611 59.269 -75.882 51.183 -73.679 49.626 C -73.25 49.323 -72.912 49.424 -71.072 50.404 C -69.909 51.024 -68.96 51.656 -68.962 51.81 C -68.967 52.204 -80.552 62.39 -81.092 62.49 C -81.34 62.533 -82.421 61.938 -83.495 61.167 L -83.495 61.163 Z M -122.905 56.879 L -124.316 55.45 L -123.69 55.044 C -123.345 54.821 -116.353 51.007 -108.15 46.568 L -93.24 38.498 L -91.814 39.197 C -91.029 39.582 -90.388 40.027 -90.388 40.186 C -90.388 40.404 -121.048 58.306 -121.418 58.306 C -121.458 58.306 -122.127 57.663 -122.903 56.877 L -122.905 56.879 Z M -99.975 49.675 C -100.666 49.156 -101.231 48.594 -101.23 48.426 C -101.229 48.258 -98.434 46.475 -95.019 44.463 L -88.81 40.806 L -87.216 41.656 C -86.339 42.123 -85.622 42.596 -85.622 42.706 C -85.622 43.019 -97.802 50.635 -98.282 50.626 C -98.521 50.622 -99.282 50.193 -99.973 49.674 L -99.975 49.675 Z M -87.535 48.093 C -88.372 47.576 -89.054 47.014 -89.051 46.843 C -89.046 46.554 -84.817 43.722 -84.123 43.542 C -83.804 43.459 -80.958 44.961 -80.728 45.333 C -80.659 45.445 -80.807 45.72 -81.059 45.944 C -81.918 46.709 -85.446 49.048 -85.73 49.041 C -85.886 49.037 -86.698 48.61 -87.535 48.093 Z" style="fill:#50abf1;stroke-width:.2646" transform="matrix(1, 0, 0, 1, 124.4000015258789, -38.5099983215332)"/>
</svg>
