<?xml version="1.0" encoding="UTF-8"?>
<svg width="238.2mm" height="48.6mm" inkscape:version="1.0.2 (e86c870879, 2021-01-15, custom)" sodipodi:docname="Apache_Parquet_logo.svg" version="1.1" viewBox="0 0 238.2 48.6" xmlns="http://www.w3.org/2000/svg" xmlns:cc="http://creativecommons.org/ns#" xmlns:dc="http://purl.org/dc/elements/1.1/" xmlns:inkscape="http://www.inkscape.org/namespaces/inkscape" xmlns:rdf="http://www.w3.org/1999/02/22-rdf-syntax-ns#" xmlns:sodipodi="http://sodipodi.sourceforge.net/DTD/sodipodi-0.dtd">
 <sodipodi:namedview id="cvfa" bordercolor="#666666" borderopacity="1.0" fit-margin-bottom="0" fit-margin-left="0" fit-margin-right="0" fit-margin-top="0" inkscape:current-layer="layer1" inkscape:cx="-159.36312" inkscape:cy="-42.326004" inkscape:document-rotation="0" inkscape:document-units="mm" inkscape:pageopacity="0.0" inkscape:pageshadow="2" inkscape:window-height="1014" inkscape:window-maximized="1" inkscape:window-width="1920" inkscape:window-x="0" inkscape:window-y="36" inkscape:zoom="0.49497475" pagecolor="#ffffff" showgrid="false"/>
 <title>Apache Parquet logo</title>
 <metadata>
  <rdf:RDF>
   <cc:Work rdf:about="">
    <dc:format>image/svg+xml</dc:format>
    <dc:type rdf:resource="http://purl.org/dc/dcmitype/StillImage"/>
    <dc:title>Apache Parquet logo</dc:title>
   </cc:Work>
  </rdf:RDF>
 </metadata>
 <g transform="translate(124.4 -38.51)" inkscape:groupmode="layer" inkscape:label="Layer 1">
  <path d="m-96.13 84.47c-2.452-2.616-2.525-2.729-2.084-3.224 0.6986-0.784 30.5-28.06 30.92-28.31 0.3701-0.2137 4.023 1.55 4.822 2.328 0.306 0.2982-2.068 2.836-15.02 16.05-8.461 8.635-15.55 15.74-15.74 15.78-0.1966 0.0435-1.501-1.141-2.898-2.632zm131.7-0.2703c-0.2337-0.2337-0.3254-1.689-0.3254-5.167 0-2.663-0.07009-4.842-0.1557-4.842-0.08566 0-0.7676 0.5352-1.515 1.189-1.782 1.559-3.341 2.068-5.954 1.943-5.82-0.2792-9.299-5.311-9.299-13.45 0-5.085 1.201-8.606 3.763-11.03 2.68-2.535 6.454-3.206 9.589-1.704 0.8731 0.4182 1.937 1.132 2.365 1.587 0.4274 0.4548 0.8674 0.827 0.9777 0.827 0.1103 0 0.2369-0.5656 0.2812-1.257l0.08064-1.257 6.751-0.1482-0.06812 16.74-0.06812 16.74-3.048 0.074c-2.146 0.0521-3.144-0.0223-3.373-0.2514zm-3.183-13.35c3.749-1.915 4.09-10.82 0.5182-13.55-1.3-0.9916-3.543-1.114-4.798-0.2607-1.847 1.255-2.917 3.747-2.917 6.795 0 5.568 3.449 8.93 7.196 7.015zm-135.2 6.669c-1.322-1.329-2.158-2.373-2.074-2.59 0.1507-0.3927 17.28-14.24 17.6-14.23 0.3948 0.0148 4.426 3.078 4.426 3.363 0 0.3001-17.22 15.68-17.56 15.68-0.1002 0-1.178-1.002-2.396-2.226zm185.8-0.2922c-2.262-0.4913-4.026-1.513-5.769-3.341-2.448-2.566-3.561-5.687-3.554-9.963 0.0099-5.844 2.512-10.43 6.863-12.57 1.621-0.7979 1.891-0.8472 4.637-0.8472 2.612 0 3.074 0.0741 4.434 0.7112 4.142 1.941 6.703 7.042 6.497 12.94l-0.07747 2.222-7.532 0.0704c-4.142 0.0387-7.634 0.1732-7.76 0.2989-0.3689 0.3689 0.8585 2.871 1.824 3.719 2.11 1.852 5.104 1.735 7.955-0.311l1.208-0.8671 1.046 1.191c0.5755 0.6548 1.362 1.594 1.749 2.087l0.7022 0.8963-1.184 1.06c-2.088 1.87-5.492 3.134-8.297 3.079-0.5986-0.0116-1.832-0.1826-2.742-0.3802zm6.097-15.54c0.4042-0.3011 0.4099-0.459 0.06372-1.761-0.9375-3.525-4.145-5.002-6.52-3.003-0.9373 0.7887-1.422 1.671-1.848 3.362-0.2619 1.04-0.2529 1.298 0.05227 1.491 0.5946 0.3765 7.731 0.2995 8.252-0.089zm-109.2 15.31c-3.521-1.31-5.46-5.213-4.693-9.444 0.5345-2.948 1.853-4.714 4.363-5.843 1.787-0.8043 6.015-1.005 8.142-0.3865 0.8052 0.2341 1.522 0.4256 1.593 0.4256 0.3445 0 0.426-0.9625 0.1649-1.947-0.3271-1.233-1.055-2.135-2.228-2.76-1.188-0.633-4.155-0.5395-6.467 0.2038-1.088 0.3498-1.986 0.5092-2.105 0.3737-0.2938-0.3341-1.614-4.199-1.614-4.725 0-1.006 4.594-2.283 8.32-2.314 4.398-0.036 7.26 1.056 9.006 3.435 1.811 2.469 1.856 2.795 1.856 13.42v9.525l-3.02 0.0752c-1.661 0.0414-3.126-0.0306-3.256-0.1599-0.1293-0.1293-0.2846-0.6259-0.345-1.104-0.06044-0.4776-0.169-0.9275-0.2413-0.9998-0.07227-0.0723-0.5537 0.2394-1.07 0.6926-1.614 1.417-2.455 1.72-5.032 1.813-1.583 0.0571-2.714-0.0379-3.374-0.2834zm7.844-5.264c1.373-0.787 2.012-2.042 2.012-3.951 0-1.889-0.3313-2.116-3.307-2.269-1.894-0.0976-2.214-0.0429-3.039 0.5192-1.265 0.8619-1.633 1.668-1.515 3.32 0.1531 2.147 1.086 2.937 3.495 2.96 0.9028 8e-3 1.65-0.1753 2.354-0.5785zm64.76 5.291c-1.46-0.4673-3.378-2.404-4.065-4.107-0.6-1.486-0.6098-1.675-0.6101-11.7l-2.65e-4 -10.19 6.72-0.1479 0.07942 8.805c0.07064 7.832 0.1312 8.9 0.5479 9.663 1.381 2.528 4.998 2.508 6.358-0.0339 0.5601-1.047 0.5853-1.416 0.6675-9.761l0.08543-8.673 6.708 0.1478 0.06873 12.67c0.05043 9.296-0.01281 12.77-0.2375 13.04-0.2367 0.2852-1.003 0.3522-3.376 0.2948l-3.07-0.0742-0.08285-1.191c-0.04557-0.6548-0.1822-1.292-0.3037-1.415-0.1215-0.1234-0.739 0.2811-1.372 0.8989-1.66 1.62-2.869 2.096-5.253 2.071-1.091-0.0117-2.381-0.148-2.865-0.3029zm53.34 0.0843c-1.565-0.4973-2.556-1.36-3.298-2.871l-0.7404-1.508-0.1732-16.01h-1.006c-1.456 0-1.632-0.3653-1.544-3.214 0.07474-2.419 0.09103-2.476 0.7379-2.548 1.959-0.2193 1.852-0.0284 1.852-3.318 0-1.969 0.1081-3.093 0.3175-3.302 0.4503-0.4503 6.187-0.4386 6.48 0.01323 0.1177 0.1819 0.2736 1.7 0.3464 3.373l0.1323 3.043 4.912 0.1524-0.075 2.834-0.075 2.834-4.895 0.1522v6.737c0 8.484-0.174 8.186 4.366 7.481 0.4945-0.0769 0.5341 0.0873 0.605 2.508l0.0759 2.59-1.266 0.5781c-1.382 0.631-5.375 0.9102-6.753 0.4723zm-156.7-0.3357c-0.07126-0.1864-0.0987-7.899-0.06098-17.14l0.06857-16.8 7.144 0.01566c6.697 0.01468 7.251 0.05286 8.864 0.6103 4.704 1.626 7.274 5.082 7.603 10.22 0.3358 5.249-2.046 9.556-6.359 11.5-2.249 1.013-3.97 1.333-7.178 1.333-1.945 0-2.817 0.101-3.024 0.3504-0.1819 0.2192-0.3179 2.177-0.3631 5.226l-0.07229 4.875-3.246 0.0743c-2.45 0.0561-3.278-9e-3 -3.376-0.2646zm13.5-17.11c1.953-0.9012 3.052-2.708 3.031-4.982-0.03363-3.664-1.849-5.264-6.301-5.553-3.639-0.2358-3.477-0.4854-3.477 5.333 0 2.675 0.07227 5.052 0.1606 5.282 0.2476 0.6453 5.143 0.5847 6.586-0.0816zm39.32 17.07c-0.216-0.2602-0.2804-3.896-0.2308-13.03l0.06873-12.67 3.286-0.0747c2.451-0.0557 3.341 0.0115 3.502 0.2646 0.1184 0.1866 0.2171 0.9643 0.2193 1.728 4e-3 1.36 0.3505 1.852 0.6466 0.9194 0.2075-0.6538 1.943-2.396 2.859-2.87 0.4183-0.2163 1.35-0.4631 2.069-0.5483l1.309-0.155v7.436l-1.124 0.1872c-1.871 0.3115-3.073 0.9242-4.047 2.062-1.514 1.768-1.708 2.894-1.708 9.902 0 3.759-0.1075 6.388-0.2739 6.699-0.2461 0.4598-0.5787 0.5118-3.275 0.5118-2.212 0-3.08-0.0949-3.301-0.361zm-111-5.603c-1.035-1.156-1.685-2.09-1.545-2.22 0.7219-0.6739 8.17-5.839 8.416-5.836 0.4004 5e-3 3.995 3.087 3.995 3.426 0 0.4162-8.066 6.625-8.607 6.625-0.2605 0-1.277-0.8978-2.259-1.995zm-5.133-5.268c-1.482-1.499-1.659-1.779-1.323-2.091 0.4823-0.4481 24.16-15.73 24.64-15.91 0.3788-0.1375 3.658 1.848 3.658 2.215 0 0.2622-24.27 17.26-24.86 17.41-0.2346 0.0602-1.122-0.6222-2.115-1.627zm15.79-2.414c-0.9775-0.8114-1.772-1.615-1.766-1.786 6e-3 -0.1709 0.8697-0.9136 1.918-1.651 1.049-0.7369 5.75-4.1 10.45-7.474 4.697-3.374 8.734-6.135 8.97-6.135 0.6322 0 3.833 1.85 3.73 2.157-0.1484 0.4452-20.69 16.36-21.12 16.36-0.223 2e-3 -1.205-0.6605-2.183-1.472zm-20.56-2.383c-1.167-1.234-1.336-1.532-1.031-1.81 0.2644-0.241 14.93-8.904 16.7-9.866 0.293-0.159 3.402 2.084 3.303 2.382-0.1286 0.3859-16.67 10.77-17.16 10.77-0.2336 2.1e-4 -1.053-0.6641-1.821-1.476zm35.46 0.0987c-1.073-0.7701-1.993-1.525-2.044-1.677-0.0722-0.2172 9.657-8.303 11.86-9.86 0.4291-0.3027 0.7666-0.2019 2.607 0.7786 1.163 0.6195 2.112 1.252 2.11 1.406-0.0053 0.3937-11.59 10.58-12.13 10.68-0.2479 0.0425-1.329-0.5528-2.403-1.323zm-39.41-4.284-1.411-1.429 0.6263-0.4059c0.3445-0.2232 7.337-4.037 15.54-8.476l14.91-8.07 1.426 0.6993c0.7843 0.3846 1.426 0.8296 1.426 0.9888 0 0.2179-30.66 18.12-31.03 18.12-0.0407 0-0.709-0.643-1.485-1.429zm22.93-7.204c-0.6912-0.5188-1.256-1.081-1.255-1.249 7.9e-4 -0.168 2.796-1.951 6.211-3.963l6.209-3.657 1.594 0.8497c0.8768 0.4674 1.594 0.94 1.594 1.05 0 0.3137-12.18 7.929-12.66 7.92-0.2387-4e-3 -0.9996-0.4325-1.691-0.9514zm12.44-1.582c-0.8367-0.5171-1.519-1.079-1.516-1.25 5e-3 -0.2884 4.234-3.121 4.928-3.301 0.319-0.08261 3.165 1.419 3.395 1.791 0.0693 0.1122-0.0795 0.387-0.3307 0.6107-0.8593 0.765-4.387 3.104-4.671 3.097-0.156-0.0039-0.9682-0.4302-1.805-0.9473z" style="fill:#50abf1;stroke-width:.2646" inkscape:connector-curvature="0"/>
 </g>
</svg>
