<?xml version="1.0" encoding="UTF-8"?><svg id="Capa_1" xmlns="http://www.w3.org/2000/svg" viewBox="0 0 281.33 236.38"><path d="M166.18,202.08c-4.87,2.32-10.03,3.48-15.48,3.48-4.87,0-9.19-.81-12.96-2.43-3.77-1.62-6.93-3.83-9.48-6.61-2.55-2.78-4.5-6.06-5.83-9.83-1.33-3.77-2-7.74-2-11.91,0-6.03,1.01-11.85,3.04-17.48,2.03-5.62,4.87-10.61,8.52-14.96,3.65-4.35,8-7.83,13.04-10.43,5.04-2.61,10.64-3.91,16.78-3.91,5.8,0,10.64,1.16,14.52,3.48,3.88,2.32,6.81,4.99,8.78,8l21.39-19.13c-3.94-5.33-9.8-9.71-17.57-13.13-7.77-3.42-16.52-5.13-26.26-5.13-10.43,0-20.12,1.97-29.04,5.91-8.93,3.94-16.67,9.36-23.22,16.26-1.69,1.78-3.27,3.64-4.77,5.57l-7.48-24.44h-24.41L1.9,228.52h25.58l14.78-24.52h47.48l4.17,24.52h30.29c6.54,2.17,13.78,3.31,21.8,3.31,5.91,0,11.33-.55,16.26-1.65,4.93-1.1,9.45-2.61,13.56-4.52,4.11-1.91,7.77-4.11,10.96-6.61,3.19-2.49,6-5.07,8.44-7.74l-16.18-19.13c-3.71,4.29-8,7.6-12.87,9.91ZM54.61,180.69l25.74-43.65,6.44,43.65h-32.17Z" fill="#008c46"/><path d="M197.69,228.52l21.74-123.13h24.76l-13.11,97.91h48.35l-4.52,25.22h-77.22Z" fill="#008c46"/><path d="M169.24,185.75h-21.47l5.84-22.85c-.06-.66-2.27-1.88-2.93-2.6-7.52-8.18.98-20.92,11.59-17.11,8.67,3.11,9,15.06,1.19,19.43l5.78,23.13Z" fill="#008c46"/><path d="M246.17,97.86l-24.54.75c-.51-17.56-6.62-35.36-18.12-48.69-19.34-22.41-49.88-28.1-74.59-10.33-18,12.95-27.65,34.24-29.23,56.07-.07.95,0,1.98-.18,2.91l-24.53-.86c.15-1.57.15-3.18.27-4.77,2.04-27.38,14.7-54.06,36.39-71.1C140.05-.49,178.02-1.3,207.24,20.07c24.36,17.82,38.22,47.78,38.93,77.78Z" fill="#008c46"/></svg>