<?xml version="1.0" encoding="UTF-8"?>
<svg width="64px" height="64px" viewBox="0 0 64 64" version="1.1" xmlns="http://www.w3.org/2000/svg" xmlns:xlink="http://www.w3.org/1999/xlink">
    <title>crs</title>
    <defs>
        <linearGradient x1="0%" y1="50%" x2="100%" y2="50%" id="linearGradient-1">
            <stop stop-color="#538B94" offset="0%"></stop>
            <stop stop-color="#8DB856" offset="100%"></stop>
        </linearGradient>
        <path d="M40,6 L58,25 C60,27.3478192 61,29.6811526 61,32 C61,34.3188474 60,36.6521808 58,39 L39,58 C36.6666667,60 34.3333333,61 32,61 C29.6666667,61 27.3333333,60 25,58 L6,40 C4,37.0230646 3,34.356398 3,32 C3,29.643602 4,27.3102687 6,25 L24,6 C27.5555556,4 30.2222222,3 32,3 C33.7777778,3 36.4444444,4 40,6 Z" id="path-2"></path>
        <filter x="-6.9%" y="-6.9%" width="113.8%" height="113.8%" filterUnits="objectBoundingBox" id="filter-3">
            <feMorphology radius="2" operator="erode" in="SourceAlpha" result="shadowSpreadInner1"></feMorphology>
            <feGaussianBlur stdDeviation="2" in="shadowSpreadInner1" result="shadowBlurInner1"></feGaussianBlur>
            <feOffset dx="0" dy="0" in="shadowBlurInner1" result="shadowOffsetInner1"></feOffset>
            <feComposite in="shadowOffsetInner1" in2="SourceAlpha" operator="arithmetic" k2="-1" k3="1" result="shadowInnerInner1"></feComposite>
            <feColorMatrix values="0 0 0 0 0   0 0 0 0 0.623529412   0 0 0 0 0.752941176  0 0 0 1 0" type="matrix" in="shadowInnerInner1"></feColorMatrix>
        </filter>
    </defs>
    <g id="geowebcache" stroke="none" fill="none">
        <path d="M18.6023059,21.0175404 C18.7666288,20.1496091 19.2049341,19.9463299 20.0242202,20.1390679 C23.4449528,20.9437518 26.8852002,21.6313726 30.4283435,21.4969997 C31.0576935,21.4732542 31.2630417,21.7272423 31.2601589,22.3424061 C31.2479622,25.0397394 31.2528408,27.7378494 31.2935335,30.4346279 C31.3041779,31.1537615 31.0082414,31.3299664 30.3518369,31.3209786 C28.3308426,31.292018 26.3084069,31.3101045 24.2867473,31.3101045 L24.2867473,31.2909084 C22.36122,31.2909084 20.4354709,31.2672738 18.5108306,31.3033359 C17.758183,31.3174279 17.3714365,31.177285 17.3994889,30.2874946 C17.4978387,27.1549751 18.020523,24.0850372 18.6023059,21.0175404 Z M12.8799439,17.9058814 C14.1818869,18.1373445 15.2954462,18.8977553 16.5552551,19.2379595 C17.1530046,19.3994067 17.177398,19.7709017 17.0309266,20.22251 C15.9526269,23.5504306 15.8292184,27.00995 15.6368431,30.4558213 C15.5954851,31.2030278 15.2395631,31.2985646 14.6309474,31.2971221 C10.8952071,31.2882453 7.1596885,31.30034 3.42405904,31.3055551 C3.55877721,28.7128573 4.57165825,26.2201348 6.48288216,24.3075125 L12.8799439,17.9058814 Z M30.4026195,3.46760248 C30.9983732,3.46540033 31.3373308,3.67899886 31.3244688,4.54459996 C31.2546149,9.26096643 31.2486274,13.9784425 31.2690292,18.6955857 C31.2724665,19.5472058 30.9657747,19.7876567 30.178311,19.714312 C26.7878483,19.3982971 23.3774274,19.2546036 20.0782183,18.2631735 C19.2320995,18.0091854 19.5061928,17.6177176 19.6741747,17.0851083 C20.8191128,13.4554867 22.2984624,9.97754788 24.2701155,6.71531581 C24.3067056,6.65439862 24.2959503,6.56518656 24.2953959,6.48218828 L24.3348689,6.4424645 C26.0172382,4.75864233 28.1490008,3.77165069 30.4026195,3.46760248 Z M20.006036,10.7743536 C19.5686177,12.9230993 18.3813238,14.8113103 17.8715015,16.937864 C17.7198188,17.5706704 17.1466845,17.5110848 16.6885318,17.3879189 C15.846072,17.161227 15.0225726,16.8638535 14.1920877,16.5925556 L20.006036,10.7743536 Z M31.3177051,45.9472072 C31.2531735,50.4215693 31.286659,54.8990383 31.3741426,59.3736223 C31.3842326,59.8905862 31.3202554,60.2859377 31.1245537,60.5691083 C28.6594884,60.3640537 26.190875,59.3783936 24.1217592,57.6289939 C22.9131764,55.2001845 21.5552395,52.8420567 20.6646581,50.2634509 C20.2888887,49.1753744 19.916113,48.0867432 19.5244878,47.0047696 C19.2970747,46.3762906 19.5742726,46.2221667 20.1529509,46.0374179 C23.3021405,45.0320068 26.578952,44.9606594 29.8190626,44.6061413 C30.8594416,44.492518 31.3356676,44.7021219 31.3177051,45.9472072 Z M17.3397251,46.9363071 C18.5034017,47.3700508 18.2212143,48.9031889 18.7079738,49.8990574 C19.2795558,51.0673581 19.8783032,52.2417616 20.0025987,53.5733959 L14.1862111,47.7528637 C15.2477681,47.4288597 16.2931368,46.5468365 17.3397251,46.9363071 Z M14.5096456,33.0405248 C15.2741574,33.0353148 15.5969266,33.210743 15.6590189,34.0585905 C15.9089405,37.456527 15.980014,40.8859762 17.0670732,44.1713989 C17.1917014,44.5473324 17.2340572,44.9585511 16.7032787,45.0950323 C15.3913566,45.4311309 14.2596131,46.2783126 12.8938038,46.4595108 L7.13562772,40.6971218 C4.96239638,38.5219675 3.73185956,35.7846885 3.46452993,33.0405248 C7.146383,33.0457451 10.8283469,33.065718 14.5096456,33.0405248 Z M18.2254034,33.0152214 L18.3601459,33.0151201 C20.3761506,33.0557315 22.3938185,33.0286572 24.410932,33.0286572 C26.3798131,33.0354258 28.3496921,33.0647193 30.3179078,33.0200023 C31.0834175,33.0025816 31.3060628,33.2729917 31.2961946,34.0160927 C31.2613785,36.6592774 31.2674769,39.3033498 31.2938661,41.9460906 C31.3005189,42.6064152 31.1167921,42.9041217 30.4074982,42.8833721 C26.9275561,42.7809557 23.5285557,43.3717083 20.1733526,44.2166707 C19.1202225,44.4816439 18.6947792,44.1407739 18.5144897,43.1243778 C17.9776128,40.1010432 17.4671252,37.0788182 17.3723235,33.9992267 C17.3490389,33.2354872 17.611379,32.9995856 18.3601459,33.0151201 Z M51.4991519,17.8905689 L56.8835544,23.2787998 C59.1229806,25.5198645 60.3613898,28.3578954 60.5762736,31.1852742 C60.3765802,31.3324075 60.0693341,31.3902178 59.6465519,31.3815629 C56.3359222,31.3107703 53.0238511,31.2967893 49.7120018,31.317206 C48.8892785,31.3221992 48.679606,31.0352559 48.629156,30.2441091 C48.4148266,26.8984349 48.3270103,23.5294591 47.3126879,20.2885314 C47.1654404,19.8186146 47.1557939,19.4507813 47.7319219,19.2773504 C49.0141284,18.890099 50.1617276,18.1309089 51.5014804,17.8980032 Z M44.0596045,20.1954357 C45.1217159,19.9356777 45.5379562,20.2510268 45.7343232,21.2665352 C46.3092316,24.2421569 46.7761437,27.2262116 46.8995522,30.2609751 C46.9339247,31.0966169 46.6376556,31.3369569 45.8317859,31.3180936 C43.8604655,31.2713794 41.887371,31.303003 39.9144983,31.303003 C37.9420691,31.3091059 35.9691964,31.2829192 33.9972107,31.3219772 C33.2631907,31.3369569 32.977566,31.1276858 32.9919803,30.3502981 C33.0414324,27.7031189 33.0459785,25.0546081 33.0260202,22.4070959 C33.020698,21.7162572 33.2607514,21.4776927 33.9424364,21.4955573 C37.3789139,21.585768 40.7404371,21.0067772 44.0596045,20.1954357 Z M33.0110515,3.41702165 C35.5012864,3.64903959 37.9887492,4.67675365 40.0577542,6.48418556 C40.0338043,6.46909496 40.0104088,6.45356052 39.9861262,6.43891377 C41.192824,8.9831219 42.6453409,11.4124862 43.5669684,14.0905124 C43.9411855,15.1775902 44.3188399,16.2636694 44.7131262,17.3433128 C44.9099367,17.881914 44.7349694,18.0806438 44.1876699,18.24775 C40.9461179,19.2355184 37.5869232,19.3736639 34.2536742,19.7133133 C33.3388103,19.806409 33.0082796,19.5330029 33.0159302,18.54934 C33.0541835,13.5055298 33.0204763,8.46127573 33.0110515,3.41702165 Z M44.2097348,10.5958185 L50.1987613,16.5892268 C50.1825729,16.5848993 50.1667172,16.5800171 50.1503071,16.5759116 C49.0286536,16.7498973 47.9478036,17.8264339 46.8967802,17.3313291 C45.8295684,16.82879 45.6927435,15.3636706 45.4046794,14.3883298 C45.0435461,13.164105 44.4235098,11.9991331 44.2796996,10.6934636 C44.2567476,10.6607303 44.2331303,10.6285518 44.2097348,10.5958185 Z M33.9763654,44.6009262 C37.4229329,44.8855393 40.8798122,45.0638524 44.2301366,46.0668224 C45.070157,46.3181474 44.7968399,46.7096152 44.6429397,47.2486602 C43.7188728,50.4688384 42.2977348,53.4708686 40.7830147,56.4329531 L39.6838697,57.5326804 C37.8663386,59.3518741 35.5242384,60.357729 33.0705936,60.5676658 C32.9645932,60.3783676 32.9175804,60.1072917 32.92257,59.7401241 C32.9900954,55.0197631 32.9992983,50.2986253 32.9909824,45.5779314 C32.9897627,44.8244002 33.2122972,44.5376788 33.9763654,44.6009262 Z M48.1822022,47.0643552 C48.658539,47.2525439 49.1444114,47.4156555 49.6302839,47.5794328 L44.2829151,52.930603 C44.4292756,52.0957379 45.0190418,51.3924717 45.2525533,50.581574 C45.4837363,49.7774449 45.9543074,49.0067148 46.1251722,48.1686319 C46.3810812,46.9133383 47.0444712,46.6149661 48.1822022,47.0643552 Z M60.550217,33.247249 C60.3043979,35.6305647 59.3049333,37.897705 57.5358564,39.6677433 L50.8635927,46.3449998 C49.7278575,46.0445193 48.7204096,45.3887441 47.5954297,45.0544208 C46.9870358,44.8733336 47.1658839,44.3973141 47.2978301,43.9834322 C48.3145919,40.7888859 48.423697,37.4674011 48.6229468,34.1657781 C48.6756144,33.2961824 48.9162221,33.018227 49.7938306,33.0263271 C52.9633111,33.0537342 56.1354527,33.0561754 59.3029374,32.9542029 C59.854783,32.9362273 60.2627074,33.0171174 60.550217,33.247249 Z M33.9024521,33.0255198 L34.0284786,33.0257723 C35.9999099,33.0567302 37.9720065,33.0363135 39.944103,33.0363135 C41.9159779,33.043193 43.8884071,33.0610576 45.8598384,33.0332066 C46.5436301,33.0233311 46.9289351,33.1408381 46.9003283,33.9660496 C46.7925538,37.0975705 46.2935976,40.1733893 45.7237896,43.2448807 C45.5590232,44.1327848 45.1750487,44.4264966 44.2452162,44.2130091 C40.8247053,43.4286309 37.3827947,42.7437841 33.8444192,42.8814858 C33.0863385,42.9110012 32.9929782,42.5235279 32.9979678,41.9045915 C33.0180369,39.2575232 33.0332274,36.6096782 32.991315,33.9639414 C32.9785639,33.1500478 33.3352622,33.0145653 34.0284786,33.0257723 Z" id="Combined-Shape" fill="url(#linearGradient-1)" fill-rule="evenodd"></path>
        <g id="outline">
            <use fill="black" fill-opacity="1" filter="url(#filter-3)" xlink:href="#path-2"></use>
            <use stroke="#009FC0" stroke-width="2" xlink:href="#path-2"></use>
        </g>
    </g>
</svg>