<?xml version="1.0" encoding="utf-8"?>
<!-- Generator: Adobe Illustrator 15.1.0, SVG Export Plug-In . SVG Version: 6.00 Build 0)  -->
<!DOCTYPE svg PUBLIC "-//W3C//DTD SVG 1.0//EN" "http://www.w3.org/TR/2001/REC-SVG-20010904/DTD/svg10.dtd">
<svg version="1.0" id="Ebene_1" xmlns="http://www.w3.org/2000/svg" xmlns:xlink="http://www.w3.org/1999/xlink" x="0px" y="0px"
	 width="193.34px" height="193.34px" viewBox="0 0 193.34 193.34" enable-background="new 0 0 193.34 193.34"
	 xml:space="preserve">
<g>
	<g>
		<path fill="#0092C8" d="M152.666,78.305L114.58,40.218c-5.069-5.066-11.759-7.597-18.418-7.597
			c-6.651,0-13.338,2.536-18.396,7.597L39.677,78.305c-5.058,5.053-7.597,11.73-7.595,18.381
			c-0.002,6.658,2.526,13.357,7.598,18.429l38.085,38.086c5.058,5.06,11.745,7.598,18.401,7.597h0.012
			c6.651,0,13.336-2.535,18.401-7.597l38.084-38.086c5.065-5.066,7.599-11.76,7.596-18.414
			C160.263,90.049,157.724,83.363,152.666,78.305"/>
	</g>
	<g>
		<defs>
			<path id="SVGID_1_" d="M80,42.457L41.912,80.543c-8.89,8.89-8.89,23.442,0,32.337L80,150.965c8.892,8.894,23.45,8.895,32.342,0
				l38.086-38.085c8.897-8.896,8.894-23.447,0.001-32.337l-38.088-38.086c-4.447-4.45-10.309-6.672-16.169-6.672
				C90.31,35.785,84.446,38.009,80,42.457"/>
		</defs>
		<clipPath id="SVGID_2_">
			<use xlink:href="#SVGID_1_"  overflow="visible"/>
		</clipPath>
		
			<linearGradient id="SVGID_3_" gradientUnits="userSpaceOnUse" x1="-1.1152" y1="578.5859" x2="0.5991" y2="578.5859" gradientTransform="matrix(62.1889 -26.3976 -26.3976 -62.1889 15385.8525 36072.457)">
			<stop  offset="0" style="stop-color:#0092C8"/>
			<stop  offset="1" style="stop-color:#00AFDD"/>
		</linearGradient>
		<polygon clip-path="url(#SVGID_2_)" fill="url(#SVGID_3_)" points="-11.605,54.728 140.042,-9.643 203.951,140.918 
			52.304,205.288 		"/>
	</g>
	<g>
		<defs>
			<filter id="Adobe_OpacityMaskFilter" filterUnits="userSpaceOnUse" x="-31.977" y="-31.433" width="256.283" height="256.283">
				<feColorMatrix  type="matrix" values="1 0 0 0 0  0 1 0 0 0  0 0 1 0 0  0 0 0 1 0"/>
			</filter>
		</defs>
		<mask maskUnits="userSpaceOnUse" x="-31.977" y="-31.433" width="256.283" height="256.283" id="SVGID_4_">
			<g filter="url(#Adobe_OpacityMaskFilter)">
				<rect x="32.071" y="32.618" width="128.185" height="128.179"/>
				<g enable-background="new    ">
					<path fill="#FFFFFF" d="M74.216,116.232c10.716-7.749-7.75-15.5-12.309-17.778c-4.558-2.279,0-6.838,4.787-8.89
						c4.789-2.051,3.177,13.009,8.89,7.294c5.471-5.47-9.345-11.852,3.305-19.491c12.653-7.635-5.584-5.582-5.584-12.65
						c0-7.067,7.979-7.977,7.979-13.449c0-3.58-6.162-4.171-10.424-4.154l-31.189,31.19c-0.694,0.693-1.335,1.418-1.933,2.168
						c0.148,5.851,7.16,6.814,11.175,6.814c5.016,0,7.751,7.751,2.737,12.765c-5.014,5.016-5.387,13.595-2.114,16.866
						c2.203,2.206,1.443,6.312,0.708,8.771l5.916,5.912C57.781,126.397,64.845,123.012,74.216,116.232"/>
					<path fill="#FFFFFF" d="M93.543,41.044c8.619-1.109,0.641,5.976,4.737,7.768c3.704,1.618,13.599-3.339,14.686-10.062
						c-4.831-4.083-10.832-6.132-16.809-6.13c-2.662,0-5.327,0.412-7.891,1.224C87.793,37.293,88.174,41.737,93.543,41.044"/>
					<path fill="#FFFFFF" d="M114.599,89.498c-1.434-5.905-15.203-8.056-21.801-3.249c-9.726,7.087-11.281,20.726-3.728,21.498
						c7.554,0.773,14.438,8.093,10.643,15.337c-3.793,7.244,4.584,24.899,13.775,12.095c9.192-12.803,4.615-15.301,5.34-22.352
						c0.72-7.048,9.363-15.99,7.246-18.594C123.952,91.629,115.722,94.123,114.599,89.498"/>
					<path fill="#FFFFFF" d="M83.665,157.613c3.879,2.117,8.191,3.182,12.494,3.182h0.012c6.651,0,13.338-2.534,18.402-7.597
						l3.215-3.213C112.307,148.96,93.251,154.596,83.665,157.613"/>
					<path fill="#FFFFFF" d="M138.319,107.358c-10.275,3.558-17.391,15.021-11.461,16.601c5.588,1.488,11.523-2.986,15.498,1.456
						l10.302-10.302C150.673,111.063,147.48,104.188,138.319,107.358"/>
					<path fill="#FFFFFF" d="M105.108,65.492c2.338-0.313,0.499-2.935-0.828-3.516c-1.327-0.582-5.552-0.283-3.988,1.63
						C101.474,65.052,102.773,65.807,105.108,65.492"/>
					<path fill="#FFFFFF" d="M154.772,96.18c-0.018-1.368-5.071-2.765-6.405-2.646c-1.329,0.125-1.774,2.366,1.97,3.283
						C153.161,97.507,154.789,97.547,154.772,96.18"/>
					<path fill="#FFFFFF" d="M110.593,54.962c-0.564,4.5,3.939,6.19,1.688,8.44c-2.251,2.25-15.5,7.035-12.382,8.44
						c8.325,3.748-5.78,3.222,0,9.003c2.871,2.87,11.933-2.198,10.974-5.628c-0.27-0.97,2.503-4.625,4.721-2.698
						c1.917,1.666,7.844,3.504,7.844,13.321c0,5.226,4.501,10.323,9.103,9.075c3.82-1.037,4.46-5.837,2.088-7.598
						c-3.03-2.249,5.093-4.964,13.362,3.959c3.815,4.115,10.121-0.905,11.415-1.175V90.1c-1.125-4.326-3.373-8.424-6.745-11.798
						l-31.506-31.502C115.353,47.403,110.823,53.121,110.593,54.962"/>
				</g>
			</g>
		</mask>
		<g mask="url(#SVGID_4_)">
			<g>
				<defs>
					<rect id="SVGID_5_" x="32.075" y="32.622" width="128.178" height="128.176"/>
				</defs>
				<clipPath id="SVGID_6_">
					<use xlink:href="#SVGID_5_"  overflow="visible"/>
				</clipPath>
				<g clip-path="url(#SVGID_6_)">
					<defs>
						<path id="SVGID_7_" d="M96.157,32.621c-6.656-0.003-13.34,2.536-18.4,7.597L39.67,78.303
							c-4.984,4.983-7.527,11.542-7.595,18.098v0.569c0.068,6.564,2.597,13.144,7.597,18.141l38.084,38.087
							c5.06,5.063,11.746,7.603,18.402,7.6h0.007c6.653,0,13.341-2.535,18.405-7.6l38.084-38.087
							c5.068-5.065,7.599-11.756,7.598-18.412c0.001-6.651-2.533-13.335-7.592-18.395l-38.09-38.087
							c-5.062-5.066-11.749-7.597-18.401-7.597H96.157z"/>
					</defs>
					<clipPath id="SVGID_8_">
						<use xlink:href="#SVGID_7_"  overflow="visible"/>
					</clipPath>
					
						<linearGradient id="SVGID_9_" gradientUnits="userSpaceOnUse" x1="-1.2285" y1="578.752" x2="0.4859" y2="578.752" gradientTransform="matrix(43.2909 -44.829 -44.829 -43.2909 26057.1094 25134.7637)">
						<stop  offset="0" style="stop-color:#8CC63F"/>
						<stop  offset="0.6137" style="stop-color:#C9E39F"/>
						<stop  offset="1" style="stop-color:#F1F6DE"/>
					</linearGradient>
					<polygon clip-path="url(#SVGID_8_)" fill="url(#SVGID_9_)" points="-31.977,98.946 93.928,-31.433 224.306,94.472 
						98.401,224.851 					"/>
				</g>
			</g>
		</g>
		<g opacity="0.25">
			<g>
				<defs>
					<rect id="SVGID_10_" x="32.082" y="32.622" width="128.177" height="128.176"/>
				</defs>
				<clipPath id="SVGID_11_">
					<use xlink:href="#SVGID_10_"  overflow="visible"/>
				</clipPath>
				<g clip-path="url(#SVGID_11_)">
					<defs>
						<rect id="SVGID_12_" x="32.082" y="32.622" width="128.177" height="128.176"/>
					</defs>
					<clipPath id="SVGID_13_">
						<use xlink:href="#SVGID_12_"  overflow="visible"/>
					</clipPath>
					<path clip-path="url(#SVGID_13_)" fill="#0092C8" d="M96.166,160.795c-6.657,0.004-13.344-2.536-18.401-7.595l-38.084-38.087
						c-5.075-5.07-7.602-11.767-7.599-18.429c-0.003-6.651,2.538-13.328,7.595-18.378L77.765,40.22
						c5.057-5.062,11.744-7.6,18.399-7.598c6.654-0.003,13.349,2.531,18.416,7.598l38.085,38.086
						c5.06,5.058,7.6,11.743,7.594,18.396c0.005,6.654-2.533,13.347-7.594,18.411L114.58,153.2
						c-5.065,5.066-11.755,7.598-18.408,7.595H96.166z M44.148,82.775c-3.826,3.827-5.741,8.853-5.743,13.909
						c0.002,5.081,1.912,10.125,5.745,13.958l38.086,38.085c3.828,3.829,8.863,5.741,13.929,5.744
						c5.07-0.003,10.106-1.912,13.941-5.744l38.084-38.085c3.832-3.833,5.741-8.873,5.745-13.941
						c-0.003-5.067-1.914-10.098-5.742-13.927l-38.087-38.084c-3.835-3.834-8.873-5.743-13.943-5.746
						c-5.067,0.001-10.1,1.917-13.928,5.746L44.148,82.775z"/>
				</g>
			</g>
		</g>
		<g opacity="0.15">
			<g>
				<defs>
					<rect id="SVGID_14_" x="32.082" y="32.621" width="124.887" height="87.036"/>
				</defs>
				<clipPath id="SVGID_15_">
					<use xlink:href="#SVGID_14_"  overflow="visible"/>
				</clipPath>
				<g clip-path="url(#SVGID_15_)">
					<defs>
						<rect id="SVGID_16_" x="32.082" y="32.621" width="124.887" height="87.036"/>
					</defs>
					<clipPath id="SVGID_17_">
						<use xlink:href="#SVGID_16_"  overflow="visible"/>
					</clipPath>
					<path clip-path="url(#SVGID_17_)" fill="#FFFFFF" d="M156.97,84.014c-1.14-2.049-2.57-3.976-4.304-5.71L114.58,40.22
						c-5.069-5.069-11.759-7.599-18.417-7.597c-6.652-0.001-13.339,2.534-18.397,7.597L39.677,78.304
						c-5.057,5.055-7.597,11.73-7.595,18.381c-0.002,6.657,2.526,13.358,7.598,18.428l4.54,4.544
						C52.275,107.132,91.137,54.294,156.97,84.014"/>
				</g>
			</g>
		</g>
	</g>
</g>
</svg>
