<?xml version="1.0" encoding="UTF-8"?>
<svg width="16" height="16" id="Layer_1" xmlns="http://www.w3.org/2000/svg" version="1.1" viewBox="0 0 32 32">
  <!-- Generator: Adobe Illustrator 29.2.0, SVG Export Plug-In . SVG Version: 2.1.0 Build 108)  -->
  <rect x="0" y="0" width="32" height="32" rx="16" ry="16" fill="#3131d2"/>
  <g>
    <circle cx="16" cy="16" r="8.304" fill="none"/>
    <path d="M14.863,6.708l-.346-.203c-.102-.06-.223-.076-.337-.047l-1.274.333c-.114.03-.211.104-.271.205l-.203.346c-.06.102-.076.223-.047.337l.333,1.274c.03.114.104.211.205.271l.346.203c.102.06.223.076.337.047l1.274-.333c.114-.03.211-.104.271-.205l.203-.346c.06-.102.076-.223.047-.337l-.333-1.274c-.03-.114-.104-.211-.205-.271Z" fill="#ffe4cf"/>
    <path d="M24.657,19.567l.346-.203c.102-.06.175-.157.205-.271l.333-1.274c.03-.114.013-.235-.047-.337l-.203-.346c-.06-.102-.157-.175-.271-.205l-1.274-.333c-.114-.03-.235-.013-.337.047l-.346.203c-.102.06-.175.157-.205.271l-.333,1.274c-.03.114-.013.235.047.337l.203.346c.06.102.157.175.271.205l1.274.333c.114.03.235.013.337-.047Z" fill="#e8bef7"/>
    <path d="M23.448,10.329v-.401c0-.118-.047-.231-.13-.314l-.931-.931c-.083-.083-.196-.13-.314-.13h-.401c-.118,0-.231.047-.314.13l-.931.931c-.083.083-.13.196-.13.314v.401c0,.118.047.231.13.314l.931.931c.083.083.196.13.314.13h.401c.118,0,.231-.047.314-.13l.931-.931c.083-.083.13-.196.13-.314Z" fill="#39cd97"/>
    <path d="M17.137,25.292l.346.203c.102.06.223.076.337.047l1.274-.333c.114-.03.211-.104.271-.205l.203-.346c.06-.102.076-.223.047-.337l-.333-1.274c-.03-.114-.104-.211-.205-.271l-.346-.203c-.102-.06-.223-.076-.337-.047l-1.274.333c-.114.03-.211.104-.271.205l-.203.346c-.06.102-.076.223-.047.337l.333,1.274c.03.114.104.211.205.271Z" fill="#84b7cf"/>
    <path d="M12.433,24.657l.203.346c.06.102.157.175.271.205l1.274.333c.114.03.235.013.337-.047l.346-.203c.102-.06.175-.157.205-.271l.333-1.274c.03-.114.013-.235-.047-.337l-.203-.346c-.06-.102-.157-.175-.271-.205l-1.274-.333c-.114-.03-.235-.013-.337.047l-.346.203c-.102.06-.175.157-.205.271l-.333,1.274c-.03.114-.013.235.047.337Z" fill="#39cd97"/>
    <path d="M25.292,14.863l.203-.346c.06-.102.076-.223.047-.337l-.333-1.274c-.03-.114-.104-.211-.205-.271l-.346-.203c-.102-.06-.223-.076-.337-.047l-1.274.333c-.114.03-.211.104-.271.205l-.203.346c-.06.102-.076.223-.047.337l.333,1.274c.03.114.104.211.205.271l.346.203c.102.06.223.076.337.047l1.274-.333c.114-.03.211-.104.271-.205Z" fill="#ffe4cf"/>
    <path d="M8.552,21.671v.401c0,.118.047.231.13.314l.931.931c.083.083.196.13.314.13h.401c.118,0,.231-.047.314-.13l.931-.931c.083-.083.13-.196.13-.314v-.401c0-.118-.047-.231-.13-.314l-.931-.931c-.083-.083-.196-.13-.314-.13h-.401c-.118,0-.231.047-.314.13l-.931.931c-.083.083-.13.196-.13.314Z" fill="#84b7cf"/>
    <path d="M21.671,23.448h.401c.118,0,.231-.047.314-.13l.931-.931c.083-.083.13-.196.13-.314v-.401c0-.118-.047-.231-.13-.314l-.931-.931c-.083-.083-.196-.13-.314-.13h-.401c-.118,0-.231.047-.314.13l-.931.931c-.083.083-.13.196-.13.314v.401c0,.118.047.231.13.314l.931.931c.083.083.196.13.314.13Z" fill="#e2deeb"/>
    <path d="M10.329,8.552h-.401c-.118,0-.231.047-.314.13l-.931.931c-.083.083-.13.196-.13.314v.401c0,.118.047.231.13.314l.931.931c.083.083.196.13.314.13h.401c.118,0,.231-.047.314-.13l.931-.931c.083-.083.13-.196.13-.314v-.401c0-.118-.047-.231-.13-.314l-.931-.931c-.083-.083-.196-.13-.314-.13Z" fill="#8ad3d4"/>
    <path d="M19.567,7.343l-.203-.346c-.06-.102-.157-.175-.271-.205l-1.274-.333c-.114-.03-.235-.013-.337.047l-.346.203c-.102.06-.175.157-.205.271l-.333,1.274c-.03.114-.013.235.047.337l.203.346c.06.102.157.175.271.205l1.274.333c.114.03.235.013.337-.047l.346-.203c.102-.06.175-.157.205-.271l.333-1.274c.03-.114.013-.235-.047-.337Z" fill="#bfc99c"/>
    <path d="M6.708,17.137l-.203.346c-.06.102-.076.223-.047.337l.333,1.274c.03.114.104.211.205.271l.346.203c.102.06.223.076.337.047l1.274-.333c.114-.03.211-.104.271-.205l.203-.346c.06-.102.076-.223.047-.337l-.333-1.274c-.03-.114-.104-.211-.205-.271l-.346-.203c-.102-.06-.223-.076-.337-.047l-1.274.333c-.114.03-.211.104-.271.205Z" fill="#bfc99c"/>
    <path d="M7.343,12.433l-.346.203c-.102.06-.175.157-.205.271l-.333,1.274c-.03.114-.013.235.047.337l.203.346c.06.102.157.175.271.205l1.274.333c.114.03.235.013.337-.047l.346-.203c.102-.06.175-.157.205-.271l.333-1.274c.03-.114.013-.235-.047-.337l-.203-.346c-.06-.102-.157-.175-.271-.205l-1.274-.333c-.114-.03-.235-.013-.337.047Z" fill="#ffe4cf"/>
  </g>
  <g>
    <circle cx="16" cy="16" r="12.469" transform="translate(-1.439 30.419) rotate(-84.585)" fill="none"/>
    <path d="M14.741,29.442l.284.284c.083.083.196.13.314.13h1.316c.118,0,.231-.047.314-.13l.284-.284c.083-.083.13-.196.13-.314v-1.316c0-.118-.047-.231-.13-.314l-.284-.284c-.083-.083-.196-.13-.314-.13h-1.316c-.118,0-.231.047-.314.13l-.284.284c-.083.083-.13.196-.13.314v1.316c0,.118.047.231.13.314Z" fill="#bfc99c"/>
    <path d="M26.998,23.83l.388-.103c.114-.03.211-.104.27-.206l.662-1.138c.059-.102.076-.223.045-.337l-.103-.388c-.03-.114-.104-.211-.206-.27l-1.138-.662c-.102-.059-.223-.076-.337-.045l-.388.103c-.114.03-.211.104-.27.206l-.662,1.138c-.059.102-.076.223-.045.337l.103.388c.03.114.104.211.206.27l1.138.662c.102.059.223.076.337.045Z" fill="#39cd97"/>
    <path d="M29.442,17.259l.284-.284c.083-.083.13-.196.13-.314v-1.316c0-.118-.047-.231-.13-.314l-.284-.284c-.083-.083-.196-.13-.314-.13h-1.316c-.118,0-.231.047-.314.13l-.284.284c-.083.083-.13.196-.13.314v1.316c0,.118.047.231.13.314l.284.284c.083.083.196.13.314.13h1.316c.118,0,.231-.047.314-.13Z" fill="#ffe4cf"/>
    <path d="M21.609,28.283l.387.105c.114.031.235.015.337-.044l1.141-.656c.102-.059.177-.156.208-.269l.105-.387c.031-.114.015-.235-.044-.337l-.656-1.141c-.059-.102-.156-.177-.269-.208l-.387-.105c-.114-.031-.235-.015-.337.044l-1.141.656c-.102.059-.177.156-.208.269l-.105.387c-.031.114-.015.235.044.337l.656,1.141c.059.102.156.177.269.208Z" fill="#e8bef7"/>
    <path d="M8.17,26.999l.103.388c.03.114.104.211.206.27l1.138.662c.102.059.223.076.337.045l.388-.103c.114-.03.211-.104.27-.206l.662-1.138c.059-.102.076-.223.045-.337l-.103-.388c-.03-.114-.104-.211-.206-.27l-1.138-.662c-.102-.059-.223-.076-.337-.045l-.388.103c-.114.03-.211.104-.27.206l-.662,1.138c-.059.102-.076.223-.045.337Z" fill="#e2deeb"/>
    <path d="M23.83,5.001l-.103-.388c-.03-.114-.104-.211-.206-.27l-1.138-.662c-.102-.059-.223-.076-.337-.045l-.388.103c-.114.03-.211.104-.27.206l-.662,1.138c-.059.102-.076.223-.045.337l.103.388c.03.114.104.211.206.27l1.138.662c.102.059.223.076.337.045l.388-.103c.114-.03.211-.104.27-.206l.662-1.138c.059-.102.076-.223.045-.337Z" fill="#8ad3d4"/>
    <path d="M28.283,10.391l.105-.387c.031-.114.015-.235-.044-.337l-.656-1.141c-.059-.102-.156-.177-.269-.208l-.387-.105c-.114-.031-.235-.015-.337.044l-1.141.656c-.102.059-.177.156-.208.269l-.105.387c-.031.114-.015.235.044.337l.656,1.141c.059.102.156.177.269.208l.387.105c.114.031.235.015.337-.044l1.141-.656c.102-.059.177-.156.208-.269Z" fill="#e8bef7"/>
    <path d="M3.717,21.609l-.105.387c-.031.114-.015.235.044.337l.656,1.141c.059.102.156.177.269.208l.387.105c.114.031.235.015.337-.044l1.141-.656c.102-.059.177-.156.208-.269l.105-.387c.031-.114.015-.235-.044-.337l-.656-1.141c-.059-.102-.156-.177-.269-.208l-.387-.105c-.114-.031-.235-.015-.337.044l-1.141.656c-.102.059-.177.156-.208.269Z" fill="#8ad3d4"/>
    <path d="M2.558,14.741l-.284.284c-.083.083-.13.196-.13.314v1.316c0,.118.047.231.13.314l.284.284c.083.083.196.13.314.13h1.316c.118,0,.231-.047.314-.13l.284-.284c.083-.083.13-.196.13-.314v-1.316c0-.118-.047-.231-.13-.314l-.284-.284c-.083-.083-.196-.13-.314-.13h-1.316c-.118,0-.231.047-.314.13Z" fill="#bfc99c"/>
    <path d="M5.002,8.17l-.388.103c-.114.03-.211.104-.27.206l-.662,1.138c-.059.102-.076.223-.045.337l.103.388c.03.114.104.211.206.27l1.138.662c.102.059.223.076.337.045l.388-.103c.114-.03.211-.104.27-.206l.662-1.138c.059-.102.076-.223.045-.337l-.103-.388c-.03-.114-.104-.211-.206-.27l-1.138-.662c-.102-.059-.223-.076-.337-.045Z" fill="#e2deeb"/>
    <path d="M10.391,3.717l-.387-.105c-.114-.031-.235-.015-.337.044l-1.141.656c-.102.059-.177.156-.208.269l-.105.387c-.031.114-.015.235.044.337l.656,1.141c.059.102.156.177.269.208l.387.105c.114.031.235.015.337-.044l1.141-.656c.102-.059.177-.156.208-.269l.105-.387c.031-.114.015-.235-.044-.337l-.656-1.141c-.059-.102-.156-.177-.269-.208Z" fill="#39cd97"/>
    <path d="M17.259,2.558l-.284-.284c-.083-.083-.196-.13-.314-.13h-1.316c-.118,0-.231.047-.314.13l-.284.284c-.083.083-.13.196-.13.314v1.316c0,.118.047.231.13.314l.284.284c.083.083.196.13.314.13h1.316c.118,0,.231-.047.314-.13l.284-.284c.083-.083.13-.196.13-.314v-1.316c0-.118-.047-.231-.13-.314Z" fill="#e8bef7"/>
  </g>
</svg>
