<?xml version="1.0" encoding="UTF-8" standalone="no"?>
<svg width="400px" height="72px" viewBox="0 0 400 72" version="1.1" xmlns="http://www.w3.org/2000/svg" xmlns:xlink="http://www.w3.org/1999/xlink" xmlns:sketch="http://www.bohemiancoding.com/sketch/ns">
    <!-- Generator: Sketch 3.3 (11970) - http://www.bohemiancoding.com/sketch -->
    <title>draw-order-buffer2</title>
    <desc>Created with Sketch.</desc>
    <defs></defs>
    <g id="Page-1" stroke="none" stroke-width="1" fill="none" fill-rule="evenodd" sketch:type="MSPage">
        <g id="draw-order-buffer2" sketch:type="MSArtboardGroup">
            <text id="rules:---title:-Rule" sketch:type="MSTextLayer" font-family="Courier New" font-size="10" font-weight="normal" fill="#000000">
                <tspan x="24" y="26.2955312">rules:</tspan>
                <tspan x="24" y="37.2955312">- title: Rule 2a</tspan>
                <tspan x="24" y="48.2955312">- title: Rule 2b</tspan>
                <tspan x="24" y="59.2955312">- title: Rule 2c</tspan>
            </text>
            <text id="--title:-Feature-Sty" sketch:type="MSTextLayer" font-family="Courier New" font-size="10" font-weight="normal" fill="#000000">
                <tspan x="12" y="15.2955312">- title: Feature Style 2</tspan>
            </text>
            <path d="M236.050781,28.8857422 L224.550781,32.8857422 L226.050781,37.3857422 L235.550781,41.3857422 L248.050781,43.3857422 L255.050781,33.8857422 L267.550781,33.8857422 L268.050781,26.8857422 L253.050781,23.8857422 L242.050781,23.8857422 L236.050781,28.8857422 Z" id="Path-5" stroke="#000000" stroke-dasharray="2" sketch:type="MSShapeGroup"></path>
            <path d="M307.041016,30 L295.041016,33 L289.041016,39 L281.041016,38 L267.536133,33.5 L255.550781,33.5 L249.050781,42 L255.550781,44 L265.050781,42.5 L271.072266,45 L263.572266,46 L252.572266,47.5 L239.572266,46.5 L220.036133,45 L252.072266,63 L386.286133,63 L325.286133,28.75 L307.041016,30 Z" id="Path-6" stroke="#D0011B" stroke-dasharray="2" sketch:type="MSShapeGroup"></path>
            <path d="M226.286133,36.75 L224.536133,32.25 L236.036133,29.5 L242.286133,23.5 L227.786133,23.75 L220.036133,21 L208.286133,20.75 L202.286133,18.25 L172.036133,18 L184.786133,25.5 L199.786133,28.5 L210.286133,29 L214.286133,30.5 L218.036133,33.5 L226.286133,36.75 Z" id="Path-7" stroke="#4A4A4A" stroke-dasharray="2" sketch:type="MSShapeGroup"></path>
            <path d="M171.959961,18.2955312 L306.000977,18.2955312 L387.040039,63.2955312 L252.999023,63.2955312 L171.959961,18.2955312 Z" id="Rectangle-1-Copy-2" stroke="#979797" stroke-width="2" sketch:type="MSShapeGroup"></path>
            <polygon id="Star-1-Copy" stroke="#000000" fill="#F8E81C" sketch:type="MSShapeGroup" points="244.5 36 240.679396 37.854102 241.409066 33.927051 238.318133 31.145898 242.589698 30.572949 244.5 27 246.410302 30.572949 250.681867 31.145898 247.590934 33.927051 248.320604 37.854102 "></polygon>
            <polygon id="Star-1-Copy-2" stroke="#000000" fill="#F8E81C" sketch:type="MSShapeGroup" points="213.5 28 209.679396 29.854102 210.409066 25.927051 207.318133 23.145898 211.589698 22.572949 213.5 19 215.410302 22.572949 219.681867 23.145898 216.590934 25.927051 217.320604 29.854102 "></polygon>
            <circle id="Oval-1" stroke="#000000" fill="#8B572A" sketch:type="MSShapeGroup" cx="303" cy="51" r="5"></circle>
        </g>
    </g>
</svg>