<?xml version="1.0" encoding="UTF-8" standalone="no"?>
<svg width="580px" height="304px" viewBox="0 0 580 304" version="1.1" xmlns="http://www.w3.org/2000/svg" xmlns:xlink="http://www.w3.org/1999/xlink" xmlns:sketch="http://www.bohemiancoding.com/sketch/ns">
    <title>coverage_sample</title>
    <description>Created with Sketch (http://www.bohemiancoding.com/sketch)</description>
    <defs>
        <radialGradient cx="84.7723105%" cy="31.2527412%" fx="84.7723105%" fy="31.2527412%" r="72.466749%" id="radialGradient-1">
            <stop stop-color="#FFFFFF" stop-opacity="0.8" offset="0%"></stop>
            <stop stop-color="#89BCD7" stop-opacity="0.774141984" offset="20.0632392%"></stop>
            <stop stop-color="#7EB5D3" offset="100%"></stop>
        </radialGradient>
        <radialGradient cx="18.060437%" cy="72.9290022%" fx="18.060437%" fy="72.9290022%" r="38.5957688%" id="radialGradient-2">
            <stop stop-color="#FFFFFF" stop-opacity="0.8" offset="0%"></stop>
            <stop stop-color="#7EB5D3" stop-opacity="0.5" offset="100%"></stop>
        </radialGradient>
    </defs>
    <g id="Page-1" stroke="none" stroke-width="1" fill="none" fill-rule="evenodd" sketch:type="MSPage">
        <g id="coverage_sample" sketch:type="MSArtboardGroup">
            <path d="M85.125,297.082611 L302.906426,297.082601 C302.906426,297.082601 312.616411,287.061777 316.496094,265.550781 C320.375777,244.039786 315.389669,233.874987 316.496094,221.734375 C317.602519,209.593763 316.533851,209.971648 322.679688,197.699219 C328.825525,185.426789 325.114683,182.020025 340.199219,174.402344 C355.283755,166.784662 380.5,168.5 380.5,168.5 C380.5,168.5 417.41931,158.43805 438.219025,168.5 C459.018739,178.561951 462.89203,179.07384 461.53125,207.699219 C460.170472,236.324597 433.605469,265.550781 433.605469,265.550781 L428.679688,297.082611 L493.867188,297.082611 L493.867188,12.2539062 L438.219029,12.2539062 C438.219029,12.2539062 433.418334,21.8794841 423.347656,36.21875 C413.276979,50.5580161 403.610916,61.7865279 401.622121,64.3628935 L397.644531,69.515625 C397.644531,69.515625 391.350878,90.8497561 374.347656,102.402344 C357.344436,113.954933 345.875209,113.667203 328.199219,116.699219 C310.523229,119.731235 306.963115,124.425766 291,116.699219 C275.036883,108.972673 276.941384,98.0427821 270.125,88.5898438 C263.308617,79.1369053 267.847266,86.5550788 256.976562,69.515625 C246.10586,52.476171 240.03336,46.0776941 236.050781,35.1796875 C232.068203,24.2816808 236.050781,12.2539062 236.050781,12.2539062 L85.125,12.2539062 L85.125,297.082611 Z" id="Path-20" fill="url(#radialGradient-1)" sketch:type="MSShapeGroup"></path>
            <path d="M85.125,297.082611 L302.906426,297.082601 C302.906426,297.082601 312.616411,287.061777 316.496094,265.550781 C320.375777,244.039786 315.389669,233.874987 316.496094,221.734375 C317.602519,209.593763 316.533851,209.971648 322.679688,197.699219 C328.825525,185.426789 325.114683,182.020025 340.199219,174.402344 C355.283755,166.784662 380.5,168.5 380.5,168.5 C380.5,168.5 417.41931,158.43805 438.219025,168.5 C459.018739,178.561951 462.89203,179.07384 461.53125,207.699219 C460.170472,236.324597 433.605469,265.550781 433.605469,265.550781 L428.679688,297.082611 L493.867188,297.082611 L493.867188,12.2539062 L438.219029,12.2539062 C438.219029,12.2539062 433.418334,21.8794841 423.347656,36.21875 C413.276979,50.5580161 403.610916,61.7865279 401.622121,64.3628935 L397.644531,69.515625 C397.644531,69.515625 391.350878,90.8497561 374.347656,102.402344 C357.344436,113.954933 345.875209,113.667203 328.199219,116.699219 C310.523229,119.731235 306.963115,124.425766 291,116.699219 C275.036883,108.972673 276.941384,98.0427821 270.125,88.5898438 C263.308617,79.1369053 267.847266,86.5550788 256.976562,69.515625 C246.10586,52.476171 240.03336,46.0776941 236.050781,35.1796875 C232.068203,24.2816808 236.050781,12.2539062 236.050781,12.2539062 L85.125,12.2539062 L85.125,297.082611 Z" id="Path-20-copy" fill="url(#radialGradient-2)" sketch:type="MSShapeGroup"></path>
            <path d="M85.125,297.082611 L302.906426,297.082601 C302.906426,297.082601 312.616411,287.061777 316.496094,265.550781 C320.375777,244.039786 315.389669,233.874987 316.496094,221.734375 C317.602519,209.593763 316.533851,209.971648 322.679688,197.699219 C328.825525,185.426789 325.114683,182.020025 340.199219,174.402344 C355.283755,166.784662 380.5,168.5 380.5,168.5 C380.5,168.5 417.41931,158.43805 438.219025,168.5 C459.018739,178.561951 462.89203,179.07384 461.53125,207.699219 C460.170472,236.324597 433.605469,265.550781 433.605469,265.550781 L428.679688,297.082611 L493.867188,297.082611 L493.867188,12.2539062 L438.219029,12.2539062 C438.219029,12.2539062 433.418334,21.8794841 423.347656,36.21875 C413.276979,50.5580161 403.610916,61.7865279 401.622121,64.3628935 L397.644531,69.515625 C397.644531,69.515625 391.350878,90.8497561 374.347656,102.402344 C357.344436,113.954933 345.875209,113.667203 328.199219,116.699219 C310.523229,119.731235 306.963115,124.425766 291,116.699219 C275.036883,108.972673 276.941384,98.0427821 270.125,88.5898438 C263.308617,79.1369053 267.847266,86.5550788 256.976562,69.515625 C246.10586,52.476171 240.03336,46.0776941 236.050781,35.1796875 C232.068203,24.2816808 236.050781,12.2539062 236.050781,12.2539062 L85.125,12.2539062 L85.125,297.082611 Z" id="Path-20-copy-2" stroke="#000000" sketch:type="MSShapeGroup"></path>
            <path d="M518,99.5 L447.5,99.5" id="Line" stroke="#000000" stroke-width="2" stroke-linecap="square" fill="#000000" sketch:type="MSShapeGroup"></path>
            <path id="Line-decoration-1" d="M448,99.5 C451.78,100.55 455.02,101.45 458.8,102.5 C458.8,100.4 458.8,98.6 458.8,96.5 C455.02,97.55 451.78,98.45 448,99.5 C448,99.5 448,99.5 448,99.5 Z" stroke="#000000" stroke-width="2" stroke-linecap="square" fill="#000000"></path>
            <text id="14-°C" sketch:type="MSTextLayer" font-family="Proxima Nova" font-size="24" font-weight="260" sketch:alignment="middle" fill="#000000">
                <tspan x="522" y="107">14 °C</tspan>
            </text>
            <path d="M68.5,36.5 L136,36.5" id="Line-copy" stroke="#000000" stroke-width="2" stroke-linecap="square" fill="#000000" sketch:type="MSShapeGroup"></path>
            <path id="Line-copy-decoration-1" d="M135.5,36.5 C131.72,35.45 128.48,34.55 124.7,33.5 C124.7,35.6 124.7,37.4 124.7,39.5 C128.48,38.45 131.72,37.55 135.5,36.5 C135.5,36.5 135.5,36.5 135.5,36.5 Z" stroke="#000000" stroke-width="2" stroke-linecap="square" fill="#000000"></path>
            <text id="12-°C" sketch:type="MSTextLayer" font-family="Proxima Nova" font-size="24" font-weight="260" sketch:alignment="middle" fill="#000000">
                <tspan x="11.5" y="40">12 °C</tspan>
            </text>
            <path d="M68.5,216.5 L156,216.5" id="Line-copy-2" stroke="#000000" stroke-width="2" stroke-linecap="square" fill="#000000" sketch:type="MSShapeGroup"></path>
            <path id="Line-copy-2-decoration-1" d="M155.5,216.5 C151.72,215.45 148.48,214.55 144.7,213.5 C144.7,215.6 144.7,217.4 144.7,219.5 C148.48,218.45 151.72,217.55 155.5,216.5 C155.5,216.5 155.5,216.5 155.5,216.5 Z" stroke="#000000" stroke-width="2" stroke-linecap="square" fill="#000000"></path>
            <text id="15-°C" sketch:type="MSTextLayer" font-family="Proxima Nova" font-size="24" font-weight="260" sketch:alignment="middle" fill="#000000">
                <tspan x="12.5512989" y="220">15 °C</tspan>
            </text>
        </g>
    </g>
</svg>