<?xml version="1.0" encoding="UTF-8"?>
<svg width="64px" height="64px" viewBox="0 0 64 64" version="1.1" xmlns="http://www.w3.org/2000/svg" xmlns:xlink="http://www.w3.org/1999/xlink">
    <title>bin</title>
    <defs>
        <linearGradient x1="99.9993429%" y1="83.3333707%" x2="0.000657132885%" y2="83.3333707%" id="linearGradient-1">
            <stop stop-color="#AFAFAF" offset="0%"></stop>
            <stop stop-color="#E0E0E0" offset="100%"></stop>
        </linearGradient>
        <linearGradient x1="70.8335137%" y1="102.083329%" x2="16.6663781%" y2="41.6667975%" id="linearGradient-2">
            <stop stop-color="#575757" offset="0%"></stop>
            <stop stop-color="#898989" offset="100%"></stop>
        </linearGradient>
        <linearGradient x1="0%" y1="50%" x2="100%" y2="50%" id="linearGradient-3">
            <stop stop-color="#B0B0B0" offset="0%"></stop>
            <stop stop-color="#E3E3E3" offset="100%"></stop>
        </linearGradient>
        <radialGradient cx="49.7478746%" cy="50.0228357%" fx="49.7478746%" fy="50.0228357%" r="145.692064%" gradientTransform="translate(0.4975, 0.5002), scale(1, 0.8752), rotate(37.5679), translate(-0.4975, -0.5002)" id="radialGradient-4">
            <stop stop-color="#CDCDCD" offset="0%"></stop>
            <stop stop-color="#F5F5F5" offset="100%"></stop>
        </radialGradient>
        <linearGradient x1="68.9516061%" y1="134.395883%" x2="0.577573644%" y2="115.646316%" id="linearGradient-5">
            <stop stop-color="#6E6E6E" offset="0%"></stop>
            <stop stop-color="#A1A1A1" offset="100%"></stop>
        </linearGradient>
        <path d="M24,-4 L24,20 C24,24.418278 31.163444,28 40,28 C48.836556,28 56.0002103,24.418278 56.0002103,20 C56.0002103,19.9726568 56.0002103,19.9453132 56.0002103,19.91797 L56.0002103,-4 L24,-4 Z" id="path-6"></path>
    </defs>
    <g id="bin" stroke="none" fill="none" fill-rule="evenodd" stroke-width="1">
        <g id="svg8">
            <path d="M58.0002103,16 L58.0002103,47.917969 C58.0002103,47.9384767 58.0002103,47.9384767 58.0002103,47.9589845 C58.0002103,47.9794923 58.0002103,47.9794923 58.0002103,48 C58.0002103,53.8996923 49.7994459,58 40,58 C30.2005541,58 21.9997897,53.8996923 21.9997897,48 L21.9997897,16.082031 C21.9997897,16.0615233 21.9997897,16.0615233 21.9997897,16.0410155 C21.9997897,16.0205077 21.9997897,16.0205077 21.9997897,16 C21.9997897,10.1392993 30.0923906,6.05052696 39.833984,5.99989234 C39.8754879,5.99989234 39.8754879,5.99989234 39.916992,5.99989234 C39.9584961,5.99989234 39.9584961,5.99989234 40,5.99989234 C49.7994029,5.99989234 58.0002103,10.1002978 58.0002103,16 Z" id="path892" stroke="url(#linearGradient-2)" stroke-width="4" fill="url(#linearGradient-1)" stroke-linecap="round" stroke-linejoin="round"></path>
            <path d="M27.99979,29.599609 L27.99979,48 C27.99979,50.209139 33.372373,52 39.99979,52 C46.627207,52 51.99979,50.209139 51.99979,48 L51.99979,29.599609 C48.5379481,31.1576141 44.3272686,31.9998872 39.99979,32 C35.6723114,31.9998872 31.4616319,31.1576141 27.99979,29.599609 Z" id="path1040" fill="#A8A8A8"></path>
            <path d="M48,30.998047 C46.7147505,31.3347466 45.3740418,31.5894025 44,31.757812 L44,51.771484 C45.4748654,51.5978729 46.833683,51.3298251 48,50.982422 L48,30.998047 Z" id="rect1083-2" fill="#B8B8B8"></path>
            <path d="M27.9999996,29.599609 L27.9999996,48 C27.9991478,49.1385972 29.454019,50.2233572 31.9999996,50.982422 L31.9999996,30.998047 C30.580941,30.6263748 29.2386173,30.1570857 27.9999996,29.599609 Z" id="rect1083" fill="#CDCDCD"></path>
            <path d="M32,30.998047 L32,50.982422 C33.166317,51.3298251 34.5251346,51.5978729 36,51.771484 L36,31.757812 C34.6259582,31.5894025 33.2852495,31.3347466 32,30.998047 L32,30.998047 Z" id="rect1085" fill="#BABABA"></path>
            <path d="M52,29.599609 C50.7613827,30.1570857 49.419059,30.6263748 48,30.998047 L48,50.982422 C50.545981,50.2233572 52.0008522,49.1385972 52,48 L52,29.599609 Z" id="rect1089" fill="#888888"></path>
            <path d="M36,31.757812 L36,51.771484 C37.2847418,51.9228027 38.6374151,52.0000001 40,52.0000001 L40,32 C38.6564935,32.000086 37.3163914,31.9189468 36,31.757812 Z" id="rect1083-6" fill="#C6C6C6"></path>
            <ellipse id="path892-3-6-7-3" fill="url(#linearGradient-3)" cx="40" cy="16" rx="16" ry="8"></ellipse>
            <path d="M25.6987984,30.4209951 C31.3853595,35.1048651 34.8806102,43.3882307 33.9160197,50.2446151 C33.8971982,50.3916547 33.8765516,50.5380124 33.8499452,50.7093561 L33.7855195,51.0936563 C32.6069756,58.1082573 26.835339,62.6685511 20.2401152,61.918616 C13.3191549,61.3722983 6.22648518,55.2460009 3.45606495,47.5378932 C0.864035971,40.7714842 1.94839329,33.1854621 6.23584359,29.2638614 C11.1768476,24.4150739 19.5113169,25.079321 25.6987984,30.4209951 Z M25.7174745,30.4359584 L25.6987984,30.4209951 C25.6923667,30.4144975 25.6854303,30.4087907 25.6784906,30.4030893 Z" id="path892-3-6-7" stroke="url(#linearGradient-5)" stroke-width="4" fill="url(#radialGradient-4)" stroke-linecap="round" stroke-linejoin="round"></path>
            <polyline id="path1228" stroke="#A9A9A9" stroke-width="4" stroke-linejoin="round" points="23 46 18.757359 50.24264 10.272078 41.757359 14.514718 37.514718"></polyline>
            <g id="g1522-Clipped">
                <mask id="mask-7" fill="white">
                    <use xlink:href="#path-6"></use>
                </mask>
                <g id="path1533"></g>
            </g>
            <path d="M24,16 L24,23.400391 C24.898283,24.107425 25.87792,24.725093 26.896484,25.234375 C30.519835,27.04605 35.041282,28 40,28 C44.95872,28 49.48017,27.04605 53.10352,25.234375 C54.12208,24.725093 55.10172,24.107425 56,23.400391 L56,16 C56,20.418278 48.83656,24 40,24 C31.163444,24 24,20.418278 24,16 Z" id="path1408" fill="#A9A9A9"></path>
        </g>
    </g>
</svg>