<?xml version="1.0" encoding="UTF-8"?>
<svg width="64px" height="64px" viewBox="0 0 64 64" version="1.1" xmlns="http://www.w3.org/2000/svg" xmlns:xlink="http://www.w3.org/1999/xlink">
    <title>cog</title>
    <defs>
        <linearGradient x1="18.75%" y1="12.5%" x2="87.5%" y2="81.25%" id="linearGradient-1">
            <stop stop-color="#CECECE" stop-opacity="0.99215686" offset="0%"></stop>
            <stop stop-color="#4E4E4E" stop-opacity="0.99215686" offset="100%"></stop>
        </linearGradient>
        <linearGradient x1="85.7142857%" y1="85.7142857%" x2="14.2857143%" y2="14.2857143%" id="linearGradient-2">
            <stop stop-color="#8D8D8D" offset="0%"></stop>
            <stop stop-color="#EDEDED" offset="100%"></stop>
        </linearGradient>
    </defs>
    <g id="cog" stroke="none" fill="none" fill-rule="evenodd" stroke-width="1">
        <g>
            <path d="M30,0 C26.6864287,0 24.0003313,2.68642874 24,6 L24,12.6875 L19.271484,7.9589844 C16.9283048,5.61677403 13.1302882,5.61677403 10.787109,7.9589844 L7.9589844,10.787109 C5.61677403,13.1302882 5.61677403,16.9283048 7.9589844,19.271484 L12.6875,24 L6,24 C2.68642874,24.0003313 0,26.6864287 0,30 L0,34 C0,37.3135713 2.68642874,39.9996687 6,40 L12.6875,40 L7.9589844,44.728516 C5.61677403,47.0716952 5.61677403,50.8697118 7.9589844,53.212891 L10.787109,56.041016 C13.1302882,58.3832264 16.9283048,58.3832264 19.271484,56.041016 L24,51.3125 L24,58 C24.0003313,61.3135713 26.6864287,64 30,64 L34,64 C37.3135713,64 39.9996687,61.3135713 40,58 L40,51.3125 L44.728516,56.041016 C47.0716952,58.3832264 50.8697118,58.3832264 53.212891,56.041016 L56.041016,53.212891 C58.3832264,50.8697118 58.3832264,47.0716952 56.041016,44.728516 L51.3125,40 L58,40 C61.3135713,39.9996687 64,37.3135713 64,34 L64,30 C64,26.6864287 61.3135713,24.0003313 58,24 L51.3125,24 L56.041016,19.271484 C58.3832264,16.9283048 58.3832264,13.1302882 56.041016,10.787109 L53.212891,7.9589844 C50.8697118,5.61677403 47.0716952,5.61677403 44.728516,7.9589844 L40,12.6875 L40,6 C39.9996687,2.68642874 37.3135713,0 34,0 L30,0 Z M32,24 C36.418278,24 40,27.581722 40,32 C40,36.418278 36.418278,40 32,40 C27.581722,40 24,36.418278 24,32 C24,27.581722 27.581722,24 32,24 Z" id="outer" fill="url(#linearGradient-1)" fill-rule="nonzero"></path>
            <path d="M30,4 C28.952622,4 28.000105,4.9526216 28,6 L28,12.6875 C27.9993655,14.3049716 27.0247681,15.7629057 25.5304053,16.3818523 C24.0360426,17.0007989 22.3159982,16.6589521 21.171875,15.515625 L16.443359,10.787109 C15.702699,10.046755 14.355895,10.046755 13.615234,10.787109 L10.787109,13.615234 C10.046755,14.355895 10.046755,15.702699 10.787109,16.443359 L15.515625,21.171875 C16.6589521,22.3159982 17.0007989,24.0360426 16.3818523,25.5304053 C15.7629057,27.0247681 14.3049716,27.9993655 12.6875,28 L6,28 C4.9526216,28.000105 4,28.952622 4,30 L4,34 C4,35.047378 4.9526216,35.999895 6,36 L12.6875,36 C14.3049716,36.0006345 15.7629057,36.9752319 16.3818523,38.4695947 C17.0007989,39.9639574 16.6589521,41.6840018 15.515625,42.828125 L10.787109,47.556641 C10.046755,48.297301 10.046755,49.644105 10.787109,50.384766 L13.615234,53.212891 C14.355895,53.953245 15.702699,53.953245 16.443359,53.212891 L21.171875,48.484375 C22.3159982,47.3410479 24.0360426,46.9992011 25.5304053,47.6181477 C27.0247681,48.2370943 27.9993655,49.6950284 28,51.3125 L28,58 C28.000105,59.047378 28.952622,60 30,60 L34,60 C35.047378,60 35.999895,59.047378 36,58 L36,51.3125 C36.0006345,49.6950284 36.9752319,48.2370943 38.4695947,47.6181477 C39.9639574,46.9992011 41.6840018,47.3410479 42.828125,48.484375 L47.556641,53.212891 C48.297301,53.953245 49.644105,53.953245 50.384766,53.212891 L53.212891,50.384766 C53.953245,49.644105 53.953245,48.297301 53.212891,47.556641 L48.484375,42.828125 C47.3410479,41.6840018 46.9992011,39.9639574 47.6181477,38.4695947 C48.2370943,36.9752319 49.6950284,36.0006345 51.3125,36 L58,36 C59.047378,35.999895 60,35.047378 60,34 L60,30 C60,28.952622 59.047378,28.000105 58,28 L51.3125,28 C49.6950284,27.9993655 48.2370943,27.0247681 47.6181477,25.5304053 C46.9992011,24.0360426 47.3410479,22.3159982 48.484375,21.171875 L53.212891,16.443359 C53.953245,15.702699 53.953245,14.355895 53.212891,13.615234 L50.384766,10.787109 C49.644105,10.046755 48.297301,10.046755 47.556641,10.787109 L42.828125,15.515625 C41.6840018,16.6589521 39.9639574,17.0007989 38.4695947,16.3818523 C36.9752319,15.7629057 36.0006345,14.3049716 36,12.6875 L36,6 C35.999895,4.9526216 35.047378,4 34,4 L30,4 Z M32,20 C38.627417,20 44,25.372583 44,32 C44,38.627417 38.627417,44 32,44 C25.372583,44 20,38.627417 20,32 C20,25.372583 25.372583,20 32,20 Z" id="inner" fill="url(#linearGradient-2)" fill-rule="nonzero"></path>
        </g>
    </g>
</svg>