<?xml version="1.0" encoding="UTF-8"?>
<svg width="64px" height="64px" viewBox="0 0 64 64" version="1.1" xmlns="http://www.w3.org/2000/svg" xmlns:xlink="http://www.w3.org/1999/xlink">
    <title>cog_photo</title>
    <defs>
        <linearGradient x1="86.3636364%" y1="28.4830554%" x2="13.6363636%" y2="71.5169446%" id="linearGradient-1">
            <stop stop-color="#799ED7" offset="0%"></stop>
            <stop stop-color="#9EBBE7" offset="100%"></stop>
        </linearGradient>
        <linearGradient x1="18.75%" y1="12.5%" x2="87.5%" y2="81.25%" id="linearGradient-2">
            <stop stop-color="#CECECE" stop-opacity="0.99215686" offset="0%"></stop>
            <stop stop-color="#4E4E4E" stop-opacity="0.99215686" offset="100%"></stop>
        </linearGradient>
        <linearGradient x1="85.7142857%" y1="85.7142857%" x2="14.2857143%" y2="14.2857143%" id="linearGradient-3">
            <stop stop-color="#8D8D8D" offset="0%"></stop>
            <stop stop-color="#EDEDED" offset="100%"></stop>
        </linearGradient>
    </defs>
    <g id="cog_photo" stroke="none" fill="none" fill-rule="evenodd" stroke-width="1">
        <g id="picture" transform="translate(6, 10)" stroke-linecap="round" stroke-linejoin="round">
            <rect stroke-opacity="0.91904235" stroke="#8FA7CD" stroke-width="12" fill="url(#linearGradient-1)" x="0" y="0" width="52" height="40"></rect>
            <rect id="matt" stroke="#F4F5F7" stroke-width="4" x="0" y="0" width="52" height="40"></rect>
        </g>
        <g id="cog" transform="translate(16, 16)">
            <path d="M22.5,0 C20.0148216,0 18.0002485,2.01482156 18,4.5 L18,9.515625 L14.453613,5.9692383 C12.6962286,4.21258052 9.84771615,4.21258052 8.09033175,5.9692383 L5.9692383,8.09033175 C4.21258052,9.84771615 4.21258052,12.6962286 5.9692383,14.453613 L9.515625,18 L4.5,18 C2.01482156,18.0002485 0,20.0148216 0,22.5 L0,25.5 C0,27.9851784 2.01482156,29.9997515 4.5,30 L9.515625,30 L5.9692383,33.546387 C4.21258052,35.3037714 4.21258052,38.1522839 5.9692383,39.9096682 L8.09033175,42.030762 C9.84771615,43.7874198 12.6962286,43.7874198 14.453613,42.030762 L18,38.484375 L18,43.5 C18.0002485,45.9851784 20.0148216,48 22.5,48 L25.5,48 C27.9851784,48 29.9997515,45.9851784 30,43.5 L30,38.484375 L33.546387,42.030762 C35.3037714,43.7874198 38.1522839,43.7874198 39.9096682,42.030762 L42.030762,39.9096682 C43.7874198,38.1522839 43.7874198,35.3037714 42.030762,33.546387 L38.484375,30 L43.5,30 C45.9851784,29.9997515 48,27.9851784 48,25.5 L48,22.5 C48,20.0148216 45.9851784,18.0002485 43.5,18 L38.484375,18 L42.030762,14.453613 C43.7874198,12.6962286 43.7874198,9.84771615 42.030762,8.09033175 L39.9096682,5.9692383 C38.1522839,4.21258052 35.3037714,4.21258052 33.546387,5.9692383 L30,9.515625 L30,4.5 C29.9997515,2.01482156 27.9851784,0 25.5,0 L22.5,0 Z M24,18 C27.3137085,18 30,20.6862915 30,24 C30,27.3137085 27.3137085,30 24,30 C20.6862915,30 18,27.3137085 18,24 C18,20.6862915 20.6862915,18 24,18 Z" id="outer" fill="url(#linearGradient-2)" fill-rule="nonzero"></path>
            <path d="M22.5,3 C21.7144665,3 21.0000788,3.7144662 21,4.5 L21,9.515625 C20.9995241,10.7287287 20.2685761,11.8221793 19.147804,12.2863892 C18.0270319,12.7505991 16.7369987,12.4942141 15.8789062,11.6367188 L12.3325192,8.09033175 C11.7770243,7.53506625 10.7669212,7.53506625 10.2114255,8.09033175 L8.09033175,10.2114255 C7.53506625,10.7669212 7.53506625,11.7770243 8.09033175,12.3325192 L11.6367188,15.8789062 C12.4942141,16.7369987 12.7505991,18.0270319 12.2863892,19.147804 C11.8221793,20.2685761 10.7287287,20.9995241 9.515625,21 L4.5,21 C3.7144662,21.0000788 3,21.7144665 3,22.5 L3,25.5 C3,26.2855335 3.7144662,26.9999213 4.5,27 L9.515625,27 C10.7287287,27.0004759 11.8221793,27.7314239 12.2863892,28.852196 C12.7505991,29.9729681 12.4942141,31.2630013 11.6367188,32.1210938 L8.09033175,35.6674808 C7.53506625,36.2229757 7.53506625,37.2330788 8.09033175,37.7885745 L10.2114255,39.9096683 C10.7669212,40.4649337 11.7770243,40.4649337 12.3325192,39.9096683 L15.8789062,36.3632812 C16.7369987,35.5057859 18.0270319,35.2494009 19.147804,35.7136108 C20.2685761,36.1778207 20.9995241,37.2712713 21,38.484375 L21,43.5 C21.0000788,44.2855335 21.7144665,45 22.5,45 L25.5,45 C26.2855335,45 26.9999213,44.2855335 27,43.5 L27,38.484375 C27.0004759,37.2712713 27.7314239,36.1778207 28.852196,35.7136108 C29.9729681,35.2494009 31.2630013,35.5057859 32.1210938,36.3632812 L35.6674808,39.9096683 C36.2229757,40.4649337 37.2330788,40.4649337 37.7885745,39.9096683 L39.9096683,37.7885745 C40.4649337,37.2330788 40.4649337,36.2229757 39.9096683,35.6674808 L36.3632812,32.1210938 C35.5057859,31.2630013 35.2494009,29.9729681 35.7136108,28.852196 C36.1778207,27.7314239 37.2712713,27.0004759 38.484375,27 L43.5,27 C44.2855335,26.9999213 45,26.2855335 45,25.5 L45,22.5 C45,21.7144665 44.2855335,21.0000788 43.5,21 L38.484375,21 C37.2712713,20.9995241 36.1778207,20.2685761 35.7136108,19.147804 C35.2494009,18.0270319 35.5057859,16.7369987 36.3632812,15.8789062 L39.9096683,12.3325192 C40.4649337,11.7770243 40.4649337,10.7669212 39.9096683,10.2114255 L37.7885745,8.09033175 C37.2330788,7.53506625 36.2229757,7.53506625 35.6674808,8.09033175 L32.1210938,11.6367188 C31.2630013,12.4942141 29.9729681,12.7505991 28.852196,12.2863892 C27.7314239,11.8221793 27.0004759,10.7287287 27,9.515625 L27,4.5 C26.9999213,3.7144662 26.2855335,3 25.5,3 L22.5,3 Z M24,15 C28.9705627,15 33,19.0294373 33,24 C33,28.9705627 28.9705627,33 24,33 C19.0294373,33 15,28.9705627 15,24 C15,19.0294373 19.0294373,15 24,15 Z" id="inner" fill="url(#linearGradient-3)" fill-rule="nonzero"></path>
        </g>
    </g>
</svg>