<?xml version="1.0" encoding="UTF-8"?>
<svg width="64px" height="64px" viewBox="0 0 64 64" version="1.1" xmlns="http://www.w3.org/2000/svg" xmlns:xlink="http://www.w3.org/1999/xlink">
    <title>database_key</title>
    <defs>
        <linearGradient x1="10%" y1="50%" x2="90%" y2="50%" id="linearGradient-1">
            <stop stop-color="#DADADA" offset="0%"></stop>
            <stop stop-color="#F5F5F5" offset="50%"></stop>
            <stop stop-color="#B3B3B3" offset="100%"></stop>
        </linearGradient>
        <linearGradient x1="50%" y1="10%" x2="50%" y2="90%" id="linearGradient-2">
            <stop stop-color="#CCCCCC" offset="0%"></stop>
            <stop stop-color="#F2F2F2" offset="100%"></stop>
        </linearGradient>
        <linearGradient x1="50%" y1="0%" x2="50%" y2="100%" id="linearGradient-3">
            <stop stop-color="#C98032" offset="0%"></stop>
            <stop stop-color="#979797" offset="100%"></stop>
        </linearGradient>
    </defs>
    <g id="database_key" stroke="none" fill="none">
        <g id="database" stroke-width="1" fill-rule="evenodd" transform="translate(1.5, 2)">
            <polygon id="path1090" fill="url(#linearGradient-1)" points="2.5 10 2.5 42 10.5 50 34.5 50 42.5 42 42.5 10"></polygon>
            <ellipse id="path1086" fill="url(#linearGradient-2)" cx="22.5" cy="10" rx="22" ry="10"></ellipse>
            <path d="M0.5,20 C0.5,14.4771525 10.3497355,10 22.5,10 C34.6502645,10 44.5,14.4771525 44.5,20" id="path960-3-6" stroke="#C2C2C2" stroke-width="4" stroke-linejoin="round" transform="translate(22.5, 15) rotate(-180) translate(-22.5, -15)"></path>
            <path d="M0.5,10 C0.5,4.4771525 10.3497355,0 22.5,0 C28.3347628,0 33.9305489,1.0535684 38.0563492,2.92893219 C42.1821495,4.80429597 44.5,7.3478351 44.5,10" id="path960" stroke="#8B8B8B" stroke-width="4" stroke-linejoin="round"></path>
            <line x1="40.5" y1="10" x2="40.5" y2="42" id="path1059" stroke="#F4F4F4" stroke-width="4" stroke-linejoin="round"></line>
            <line x1="4.5" y1="42" x2="4.5" y2="10" id="path1057" stroke="#F4F4F4" stroke-width="4" stroke-linejoin="round"></line>
            <path d="M0.5,52 C0.5,46.4771525 10.3497355,42 22.5,42 C34.6502645,42 44.5,46.4771525 44.5,52" id="path960-3" stroke="#8B8B8B" stroke-width="4" stroke-linejoin="round" transform="translate(22.5, 47) rotate(-180) translate(-22.5, -47)"></path>
            <line x1="0.5" y1="10" x2="0.5" y2="42" id="path982" stroke="#8B8B8B" stroke-width="4" stroke-linejoin="round"></line>
            <line x1="44.5" y1="10" x2="44.5" y2="42" id="path984" stroke="#8B8B8B" stroke-width="4" stroke-linejoin="round"></line>
            <path d="M22.5,2 C17.349291,2 12.68556,2.6770791 9.138672,3.859375 C7.365228,4.450523 5.864838,5.156668 4.675781,6.09375 C3.486724,7.030832 2.5,8.360913 2.5,10 L6.5,10 C6.5,9.982233 6.519701,9.734906 7.152344,9.236328 C7.784986,8.73775 8.920381,8.148935 10.404297,7.654297 C13.372128,6.66502 17.709584,6 22.5,6 C27.290416,6 31.627872,6.66502 34.595703,7.654297 C36.079619,8.148935 37.215014,8.73775 37.847656,9.236328 C38.480299,9.734906 38.5,9.982233 38.5,10 L42.5,10 C42.5,8.360913 41.513276,7.030832 40.324219,6.09375 C39.135162,5.156668 37.634772,4.450523 35.861328,3.859375 C32.31444,2.6770791 27.650709,2 22.5,2 Z" id="path1035" fill="#F4F4F4"></path>
            <path d="M22.5,42 C17.349291,42 12.68556,42.677079 9.138672,43.859375 C7.365228,44.450523 5.864838,45.156668 4.675781,46.09375 C3.486724,47.030832 2.5,48.360913 2.5,50 L6.5,50 C6.5,49.982233 6.519701,49.734906 7.152344,49.236328 C7.784986,48.73775 8.920381,48.148935 10.404297,47.654297 C13.372128,46.66502 17.709584,46 22.5,46 C27.290416,46 31.627872,46.66502 34.595703,47.654297 C36.079619,48.148935 37.215014,48.73775 37.847656,49.236328 C38.480299,49.734906 38.5,49.982233 38.5,50 L42.5,50 C42.5,48.360913 41.513276,47.030832 40.324219,46.09375 C39.135162,45.156668 37.634772,44.450523 35.861328,43.859375 C32.31444,42.677079 27.650709,42 22.5,42 Z" id="path1035-1" fill="#F4F4F4" transform="translate(22.5, 46) rotate(-180) translate(-22.5, -46)"></path>
        </g>
        <g id="key" transform="translate(24, 24)">
            <path d="M4,36 L4,30 L16,20 C15.0772068,15.7941153 15.0772068,12.460782 16,10 C17.3841899,6.30882701 19.5010922,6.24945388 22,5 C24.4989078,3.75054612 23.4258234,2.38618483 28,5 C32.5741766,7.61381517 33.6322488,9.60643537 35,12 C36.3677512,14.3935646 36.7663414,14.4673172 35,18 C33.2336586,21.5326828 34.3370016,22.3736244 30,24 C27.1086656,25.0842504 23.7753323,25.0842504 20,24 L20,28 L16,28 L16,32 L12,32 L12,36 L4,36 Z M28,8 L32,12 L28,16 L24,12 L28,8 Z" fill="#F4D847" fill-rule="evenodd"></path>
            <path d="M4,36 L4,30 L16,20 C15.0819419,15.7814883 15.0819419,12.448155 16,10 C17.3770872,6.3277675 19.5346802,6.23265992 22,5 C23.6435466,4.17822672 25.6435466,4.17822672 28,5 L31,8 C27,7.33333333 24,8 22,10 C19,13 20.0793719,20.1536446 20,24 C19.96481,25.7053055 19.96481,27.0386389 20,28 L16,28 L16,32 L12,32 L12,36 L4,36 Z" id="highlight" fill-opacity="0.8" fill="#FFFFFF" fill-rule="evenodd"></path>
            <path d="M28.658569,3.11153849 L29.0906447,3.26221759 L36.534654,10.7062269 L36.6329932,10.8452995 C38.2679316,13.1574516 38.2679316,15.9362727 36.7888544,18.8944272 C36.5499307,19.3722745 36.3579959,19.8175214 36.1733927,20.3050651 C36.075925,20.5624807 35.7828673,21.3903616 35.7331781,21.5239165 C35.1913285,22.9803046 34.5520759,23.8653122 33.2382785,24.6865158 C32.5869304,25.0936482 31.7746737,25.4704983 30.7022469,25.8726584 C28.0776488,26.8568826 25.1705575,27.0620144 22,26.5004273 L22,30 L18,30 L18,34 L14,34 L14,38 L2,38 L2,29.0632501 L2.7196312,28.4635574 L13.8109626,19.2207813 C13.0618243,15.2034655 13.1499342,11.904173 14.1273416,9.29775312 C15.2390061,6.33331451 16.6711075,5.10047083 19.5037006,3.91488196 C20.7088111,3.41048 20.695057,3.41640353 21.1055728,3.21114562 C23.278972,2.12444604 25.8280591,2.12444604 28.658569,3.11153849 Z M26.8284271,12 L28,13.1715729 L29.1715729,12 L28,10.8284271 Z" id="outline" stroke="url(#linearGradient-3)" stroke-width="4"></path>
        </g>
    </g>
</svg>