<?xml version="1.0" encoding="UTF-8"?>
<svg width="64px" height="64px" viewBox="0 0 64 64" version="1.1" xmlns="http://www.w3.org/2000/svg" xmlns:xlink="http://www.w3.org/1999/xlink">
    <title>palette</title>
    <defs>
        <linearGradient x1="49.9999634%" y1="0%" x2="49.9999634%" y2="99.999825%" id="linearGradient-1">
            <stop stop-color="#E8B180" offset="0%"></stop>
            <stop stop-color="#DF9259" offset="100%"></stop>
        </linearGradient>
        <linearGradient x1="0%" y1="27.18938%" x2="100%" y2="67.5458219%" id="linearGradient-2">
            <stop stop-color="#D0905C" offset="0%"></stop>
            <stop stop-color="#9F641D" offset="100%"></stop>
        </linearGradient>
        <linearGradient x1="125%" y1="50%" x2="-25%" y2="50%" id="linearGradient-3">
            <stop stop-color="#F04141" offset="0%"></stop>
            <stop stop-color="#F6756F" offset="100%"></stop>
        </linearGradient>
        <linearGradient x1="125%" y1="50%" x2="-25%" y2="50%" id="linearGradient-4">
            <stop stop-color="#FEA733" offset="0%"></stop>
            <stop stop-color="#FFA42C" offset="100%"></stop>
        </linearGradient>
        <linearGradient x1="50%" y1="-25%" x2="50%" y2="125%" id="linearGradient-5">
            <stop stop-color="#FFD52B" offset="0%"></stop>
            <stop stop-color="#FBCE3B" offset="100%"></stop>
        </linearGradient>
    </defs>
    <g id="Palette" stroke="none" fill="none">
        <path d="M60,26 C60.472,34.39892 54.7628,41.0056 50,46 C45.2372,50.9944 31.06016,58.906 27.06016,54.906 C25.09688,52.9428 24.85668,50.7408 24.61644,48.538 C24.36936,46.2724 24.1222,44.0068 22,42 C19.9252,40.038 17.04004,39.30028 14.1554,38.56252 C11.32772,37.83932 8.5006,37.11624 6.4378,35.24064 C2.252492,31.43504 11.23736,18.99372 16,13.99932 C20.76264,9.00488 27.58784,3.999268 36,3.999268 C40,3.999268 45.1788,4.17896 50.6392,9.33292 C56.1732,14.55644 59.632,19.448 60,26 Z M30,40 C33.31372,40 36,37.31372 36,34 C36,30.68628 33.31372,28 30,28 C26.68628,28 24,30.68628 24,34 C24,37.31372 26.68628,40 30,40 Z" id="shape" fill="url(#linearGradient-1)" fill-rule="evenodd"></path>
        <path d="M49.2663828,10.7873523 C55.0900559,16.2842953 57.6974326,20.6691065 58.0031472,26.1121553 C58.3559452,32.3899562 55.3334013,37.5092402 48.5526259,44.6197434 C43.2513414,50.1788127 30.8021217,55.8195346 28.4743736,53.4917864 C27.2532999,52.2707625 26.9189714,51.2032213 26.6046507,48.3211634 C26.1863758,44.4857916 25.5852263,42.6376704 23.3741516,40.5468285 C21.309844,38.5947504 19.3119662,37.8169618 14.6565084,36.6263064 C14.6537334,36.6255967 14.6537334,36.6255967 14.6509586,36.624887 C10.7315762,35.6224761 9.17323031,35.0246938 7.78327412,33.7608767 C5.67987469,31.8483061 11.059853,22.0779278 17.4473973,15.3795523 C23.0817443,9.47097885 29.2880233,5.999268 36,5.999268 C41.8043835,5.999268 45.1921102,6.94172953 49.2663828,10.7873523 Z M22,34 C22,38.4182895 25.5817105,42 30,42 C34.4182895,42 38,38.4182895 38,34 C38,29.5817105 34.4182895,26 30,26 C25.5817105,26 22,29.5817105 22,34 Z" id="shape-highlight" stroke-opacity="0.25" stroke="#FFFFFF" stroke-width="4"></path>
        <path d="M52.0120128,7.87848364 L52.0120253,7.87849551 C58.5101889,14.0120855 61.6239453,19.24847 61.9968493,25.8877817 C62.4308816,33.6110932 58.9404858,39.5227784 51.4473741,47.3802566 C48.804662,50.1514755 43.8066048,53.5012276 39.0694506,55.6476247 C33.1115121,58.3471573 28.302183,58.9764501 25.6459753,56.3202424 C23.5947846,54.2691353 23.0345161,52.4801472 22.6282284,48.7548288 C22.3053045,45.7937784 21.9518122,44.7070327 20.6258401,43.4531636 C19.2339277,42.1369249 17.6527322,41.5213538 13.6653908,40.5015723 C13.6626162,40.5008627 13.6626162,40.5008627 13.6598364,40.5001517 C9.09692544,39.3331536 7.14042981,38.5826409 5.09230449,36.7203838 C2.21758483,34.1064703 3.03111271,29.6951883 6.11146266,24.1010794 C8.28742508,20.149395 11.6666629,15.6454634 14.5525972,12.6190935 C20.8709312,5.99324313 28.0108473,1.999268 36,1.999268 C42.7285043,1.999268 47.0598573,3.20424525 52.0120128,7.87848364 Z M26,34 C26,36.2091505 27.7908495,38 30,38 C32.2091505,38 34,36.2091505 34,34 C34,31.7908495 32.2091505,30 30,30 C27.7908495,30 26,31.7908495 26,34 Z" id="shape-edge" stroke="url(#linearGradient-2)" stroke-width="4"></path>
        <circle id="paint" stroke="url(#linearGradient-3)" stroke-width="2" fill="#F58582" fill-rule="evenodd" cx="14" cy="26" r="4"></circle>
        <circle id="paint" stroke="url(#linearGradient-4)" stroke-width="2" fill="#FFC06D" fill-rule="evenodd" cx="22" cy="18" r="4"></circle>
        <circle id="paint" stroke="url(#linearGradient-5)" stroke-width="2" fill="#FFE26D" fill-rule="evenodd" cx="34" cy="14" r="4"></circle>
        <circle id="paint" stroke="#7BB83C" stroke-width="2" fill="#98C861" fill-rule="evenodd" cx="46" cy="22" r="4"></circle>
        <circle id="paint" stroke="#2798AD" stroke-width="2" fill="#5BB6C5" fill-rule="evenodd" cx="46" cy="34" r="4"></circle>
    </g>
</svg>