<?xml version="1.0" encoding="UTF-8"?>
<svg width="64px" height="64px" viewBox="0 0 64 64" version="1.1" xmlns="http://www.w3.org/2000/svg" xmlns:xlink="http://www.w3.org/1999/xlink">
    <title>server_chart</title>
    <defs>
        <rect id="path-1" x="0" y="0" width="44" height="56"></rect>
        <linearGradient x1="41.5816327%" y1="7.14285714%" x2="75.255102%" y2="92.8571429%" id="linearGradient-3">
            <stop stop-color="#CACACA" offset="0%"></stop>
            <stop stop-color="#636363" offset="100%"></stop>
        </linearGradient>
        <polygon id="path-4" points="16 4 4 16 4 44 16 52 40 52 40 4"></polygon>
        <linearGradient x1="46.875%" y1="8.33333333%" x2="53.125%" y2="87.5%" id="linearGradient-6">
            <stop stop-color="#E1E1E1" offset="0%"></stop>
            <stop stop-color="#D2D2D4" offset="100%"></stop>
        </linearGradient>
        <linearGradient x1="50%" y1="0%" x2="50%" y2="100%" id="linearGradient-7">
            <stop stop-color="#C9CACF" offset="0%"></stop>
            <stop stop-color="#AEAFB7" offset="100%"></stop>
        </linearGradient>
        <polygon id="path-8" points="12 0 0 12 0 40 12 48 36 48 36 0"></polygon>
        <linearGradient x1="21.875%" y1="0%" x2="78.125%" y2="100%" id="linearGradient-10">
            <stop stop-color="#A4C8A0" offset="0%"></stop>
            <stop stop-color="#42A13B" offset="100%"></stop>
        </linearGradient>
        <linearGradient x1="50%" y1="-10%" x2="50%" y2="110%" id="linearGradient-11">
            <stop stop-color="#64D65B" offset="2.48353e-07%"></stop>
            <stop stop-color="#52C34C" offset="100%"></stop>
        </linearGradient>
        <linearGradient x1="29.328125%" y1="-10%" x2="53.9097406%" y2="116.842%" id="linearGradient-12">
            <stop stop-color="#61D557" stop-opacity="0.984314" offset="0%"></stop>
            <stop stop-color="#38B234" offset="100%"></stop>
        </linearGradient>
        <linearGradient x1="50%" y1="-7.14285714%" x2="50%" y2="107.142857%" id="linearGradient-13">
            <stop stop-color="#FEA483" offset="2.48353e-07%"></stop>
            <stop stop-color="#FC806F" offset="100%"></stop>
        </linearGradient>
        <linearGradient x1="50%" y1="1.97906494%" x2="50%" y2="100%" id="linearGradient-14">
            <stop stop-color="#FE9063" offset="0%"></stop>
            <stop stop-color="#FE9063" offset="10.0266193%"></stop>
            <stop stop-color="#FB6C57" offset="87.5138156%"></stop>
            <stop stop-color="#FA4A3C" stop-opacity="0.968627" offset="100%"></stop>
        </linearGradient>
        <linearGradient x1="50%" y1="-8.33333333%" x2="50%" y2="108.333333%" id="linearGradient-15">
            <stop stop-color="#85BEF6" offset="2.48353e-07%"></stop>
            <stop stop-color="#75A0F4" offset="100%"></stop>
        </linearGradient>
        <linearGradient x1="50%" y1="2.51490275%" x2="50%" y2="100%" id="linearGradient-16">
            <stop stop-color="#4899EC" offset="0%"></stop>
            <stop stop-color="#4899EC" offset="11.9391538%"></stop>
            <stop stop-color="#5AA8F2" offset="19.5266704%"></stop>
            <stop stop-color="#2C71E1" offset="85.1189715%"></stop>
            <stop stop-color="#3070E0" offset="100%"></stop>
        </linearGradient>
    </defs>
    <g id="server_chart" stroke="none" fill="none" fill-rule="evenodd" stroke-width="1">
        <g id="server-chart">
            <g id="server" transform="translate(0, 4)">
                <g id="Clipped">
                    <mask id="mask-2" fill="white">
                        <use xlink:href="#path-1"></use>
                    </mask>
                    <g id="Rectangle"></g>
                    <path d="M4,16 L1.171572,13.17156 C0.421428,13.92172 0,14.93912 0,16 L4,16 Z M16,4 L16,0 C14.93912,0 13.92172,0.42144 13.17156,1.17156 L16,4 Z M4,44 L0,44 C0,45.3376 0.668404,46.5864 1.7812,47.3284 L4,44 Z M16,52 L13.7812,55.3284 C14.43828,55.7664 15.21032,56 16,56 L16,52 Z M40,52 L40,56 C42.2092,56 44,54.2092 44,52 L40,52 Z M40,4 L44,4 C44,1.79088 42.2092,0 40,0 L40,4 Z M6.82844,18.82844 L18.82844,6.82844 L13.17156,1.17156 L1.171572,13.17156 L6.82844,18.82844 Z M8,44 L8,16 L0,16 L0,44 L8,44 Z M18.2188,48.6716 L6.2188,40.6716 L1.7812,47.3284 L13.7812,55.3284 L18.2188,48.6716 Z M40,48 L16,48 L16,56 L40,56 L40,48 Z M36,4 L36,52 L44,52 L44,4 L36,4 Z M16,8 L40,8 L40,0 L16,0 L16,8 Z" id="Shape" fill="url(#linearGradient-3)" fill-rule="nonzero" mask="url(#mask-2)"></path>
                    <mask id="mask-5" fill="white">
                        <use xlink:href="#path-4"></use>
                    </mask>
                    <g id="Path"></g>
                </g>
                <polygon id="Path" fill="url(#linearGradient-6)" points="4 16 16 4 16 52 4 44"></polygon>
                <rect id="Rectangle" fill="url(#linearGradient-7)" x="16" y="4" width="24" height="48"></rect>
                <g id="Clipped" transform="translate(4, 4)">
                    <mask id="mask-9" fill="white">
                        <use xlink:href="#path-8"></use>
                    </mask>
                    <g id="Path"></g>
                    <path d="M0,12 L-2.828428,9.17156 C-3.578572,9.92172 -4,10.93912 -4,12 L0,12 Z M12,0 L12,-4 C10.93912,-4 9.92172,-3.57856 9.17156,-2.82844 L12,0 Z M0,40 L-4,40 C-4,41.3376 -3.331596,42.5864 -2.2188,43.3284 L0,40 Z M12,48 L9.7812,51.3284 C10.43828,51.7664 11.21032,52 12,52 L12,48 Z M36,48 L36,52 C38.2092,52 40,50.2092 40,48 L36,48 Z M36,0 L40,0 C40,-2.20912 38.2092,-4 36,-4 L36,0 Z M2.82844,14.82844 L14.82844,2.82844 L9.17156,-2.82844 L-2.828428,9.17156 L2.82844,14.82844 Z M4,40 L4,12 L-4,12 L-4,40 L4,40 Z M14.2188,44.6716 L2.2188,36.6716 L-2.2188,43.3284 L9.7812,51.3284 L14.2188,44.6716 Z M36,44 L12,44 L12,52 L36,52 L36,44 Z M32,0 L32,48 L40,48 L40,0 L32,0 Z M12,4 L36,4 L36,-4 L12,-4 L12,4 Z" id="Shape" fill="#FFFFFF" fill-rule="nonzero" style="mix-blend-mode: soft-light;" mask="url(#mask-9)"></path>
                </g>
                <rect id="Rectangle" fill-opacity="0.33" fill="#000000" x="20" y="12" width="16" height="4" rx="0.5"></rect>
                <rect id="Rectangle" fill-opacity="0.33" fill="#000000" x="20" y="20" width="16" height="4" rx="0.5"></rect>
                <ellipse id="Oval" fill="url(#linearGradient-10)" cx="32" cy="32" rx="3" ry="4"></ellipse>
            </g>
            <g id="chart" transform="translate(28, 32)">
                <rect stroke="url(#linearGradient-12)" stroke-width="4" fill="url(#linearGradient-11)" x="26" y="11.1428571" width="8" height="18.8571429" rx="0.5"></rect>
                <rect stroke="url(#linearGradient-14)" stroke-width="4" fill="url(#linearGradient-13)" x="14" y="2" width="8" height="28" rx="0.5"></rect>
                <rect stroke="url(#linearGradient-16)" stroke-width="4" fill="url(#linearGradient-15)" x="2" y="6.57142857" width="8" height="23.4285714" rx="0.5"></rect>
            </g>
        </g>
    </g>
</svg>