<?xml version="1.0" encoding="UTF-8"?>
<svg width="64px" height="64px" viewBox="0 0 64 64" version="1.1" xmlns="http://www.w3.org/2000/svg" xmlns:xlink="http://www.w3.org/1999/xlink">
    <title>text_replace</title>
    <defs>
        <linearGradient x1="108.323187%" y1="27.1714042%" x2="-6.89652636%" y2="27.1714042%" id="linearGradient-1">
            <stop stop-color="#448DE2" offset="0%"></stop>
            <stop stop-color="#296CD9" offset="100%"></stop>
        </linearGradient>
        <linearGradient x1="7.26075499%" y1="-5.12363105%" x2="102.19158%" y2="97.7174523%" id="linearGradient-2">
            <stop stop-color="#80C178" offset="0%"></stop>
            <stop stop-color="#2A6B26" offset="100%"></stop>
        </linearGradient>
        <linearGradient x1="108.323187%" y1="27.1714042%" x2="-6.89652636%" y2="27.1714042%" id="linearGradient-3">
            <stop stop-color="#448DE2" offset="0%"></stop>
            <stop stop-color="#296CD9" offset="100%"></stop>
        </linearGradient>
    </defs>
    <g id="Text-replace" stroke="none" fill="none">
        <path d="M6.14452,35.45704 C6.07684,35.45704 5.90756,35.3724 5.63672,35.20312 C5.36588,35.06772 5.11196,34.89844 4.875,34.69532 C4.63804,34.4922 4.51952,34.33984 4.51952,34.23828 C4.51952,34.03516 4.58724,33.4258 4.72264,32.41016 C4.85808,31.39452 4.9258,30.09116 4.9258,28.5 L4.9258,8.03516 C4.9258,6.61328 4.8242,5.39452 4.62108,4.37892 C4.48568,3.83724 3.605468,3.5664 1.980468,3.5664 L1.523436,3.5664 C1.320312,3.5664 1.218752,3.22788 1.218752,2.55078 C1.218752,1.97526 1.320312,1.6875 1.523436,1.6875 C3.48698,1.518228 5.33204,1.230468 7.0586,0.82422 C8.819,0.417968 10.0716,0.096356 10.8164,-0.140624 L11.3242,-0.292968 L11.4258,-0.292968 C11.5612,-0.292968 11.6966,-0.191408 11.83204,0.01172 C11.96744,0.214844 12.05208,0.40104 12.08592,0.570312 C11.71356,2.16146 11.52736,3.87108 11.52736,5.6992 L11.52736,13.11328 C11.52736,13.45184 11.54428,13.67188 11.57812,13.77344 C11.61196,13.84116 11.6966,13.84116 11.83204,13.77344 C13.08464,12.79168 14.55728,12.3008 16.25,12.3008 C18.28124,12.3008 20.14324,12.8086 21.83592,13.8242 C23.52864,14.806 24.8828,16.14324 25.89844,17.83592 C26.91408,19.52864 27.42188,21.42448 27.42188,23.52344 C27.42188,25.7578 26.8802,27.77212 25.79688,29.5664 C24.7474,31.36068 23.32552,32.78256 21.53124,33.83204 C19.73696,34.88152 17.72264,35.40624 15.48828,35.40624 C14.26952,35.40624 13.30468,35.3216 12.59376,35.15236 C11.91668,35.01692 11.3242,34.88152 10.8164,34.74608 C10.3086,34.57684 9.68228,34.4922 8.93752,34.4922 C8.42968,34.4922 7.90496,34.66144 7.36328,35 C6.8216,35.30468 6.41536,35.45704 6.14452,35.45704 Z M15.64064,32.66408 C17.16408,32.66408 18.28124,31.98696 18.9922,30.6328 C19.73696,29.2448 20.10936,27.4336 20.10936,25.1992 C20.10936,18.66536 18.63672,15.39844 15.6914,15.39844 C14.37108,15.39844 13.33856,15.77084 12.59376,16.51564 C11.8828,17.2604 11.52736,18.03908 11.52736,18.85156 L11.52736,28.4492 C11.52736,29.8034 11.91668,30.85288 12.69532,31.59764 C13.47396,32.3086 14.45572,32.66408 15.64064,32.66408 Z" id="b" fill="url(#linearGradient-1)" fill-rule="nonzero"></path>
        <g id="arrow" stroke-width="1" fill-rule="evenodd" transform="translate(16, 20)">
            <polygon id="Path" fill="#82C27C" points="9.23076 18.46152 0 9.23076 9.23076 0 18.46152 9.23076 24 3.69232 24 24 3.69232 24"></polygon>
            <path d="M17.0473064,10.6449736 L18.4615149,12.059182 L19.8757285,10.6449787 L22,8.5207225 L22,22 L8.5207225,22 L10.6449787,19.8757285 L12.059182,18.4615149 L10.6449736,17.0473064 L2.82842713,9.23076002 L9.23076002,2.82842713 Z" id="Path-2" stroke="url(#linearGradient-2)" stroke-width="4"></path>
        </g>
        <path d="M36.41872,63.8564 C33.29372,63.8564 30.7312,63.0124 28.7312,61.3248 C26.79372,59.5748 25.82496,57.2 25.82496,54.2 C25.82496,52.1376 26.4812,50.2624 27.79372,48.5748 C29.16872,46.8876 31.07496,45.45 33.51244,44.2624 C34.38744,43.8248 35.16872,43.4812 35.8562,43.2312 C36.6062,42.9188 37.29372,42.6376 37.91872,42.3876 C40.1064,41.7 41.9188,41.1376 43.3564,40.7 C44.8564,40.2624 45.9188,39.94996 46.5436,39.76244 C47.1064,39.44996 47.3876,38.94996 47.3876,38.26244 L47.3876,33.1062 C47.3876,30.91872 46.8876,29.19996 45.8876,27.94996 C44.8876,26.69996 43.5436,26.07496 41.8564,26.07496 C39.9812,26.07496 38.51244,26.66872 37.44996,27.8562 C36.38744,28.9812 35.8562,30.6062 35.8562,32.7312 C35.8562,33.9812 35.38744,34.91872 34.44996,35.54372 C33.51244,36.1062 32.44996,36.38744 31.26244,36.38744 C28.94996,36.38744 27.32496,35.63744 26.38744,34.13744 C26.38744,32.63744 26.94996,31.16872 28.07496,29.7312 C29.19996,28.2312 30.66872,26.88744 32.4812,25.69996 C34.3562,24.51244 36.41872,23.57496 38.66872,22.88744 C40.9188,22.13744 43.1688,21.76244 45.4188,21.76244 C49.2936,21.76244 52.2,22.79372 54.1376,24.8562 C56.0748,26.8562 57.0436,30.32496 57.0436,35.26244 L57.0436,53.7312 C57.0436,56.2936 58.0748,57.5748 60.1376,57.5748 C61.0748,57.5748 62.1376,57.1688 63.3248,56.3564 C63.7,56.4188 63.8876,56.7624 63.8876,57.3876 C63.8876,58.5748 63.7,59.5124 63.3248,60.2 C62.3876,60.95 61.1376,61.7312 59.5748,62.5436 C58.0124,63.3564 56.5124,63.7624 55.0748,63.7624 C53.6376,63.7624 52.2312,63.2312 50.8564,62.1688 C49.4812,61.1064 48.5748,59.95 48.1376,58.7 C47.6376,59.1376 47.2624,59.45 47.0124,59.6376 C46.7624,59.8248 46.3564,60.1376 45.7936,60.5748 C44.4812,61.45 43.0436,62.2312 41.4812,62.9188 C39.91872,63.5436 38.2312,63.8564 36.41872,63.8564 Z M41.2,57.7624 C42.8876,57.7624 44.3248,57.3248 45.5124,56.45 C46.7624,55.5748 47.3876,54.5748 47.3876,53.45 L47.3876,43.8876 L41.3876,45.95 C39.94996,46.5748 38.66872,47.3248 37.54372,48.2 C36.41872,49.0748 35.8562,50.3248 35.8562,51.95 C35.8562,53.95 36.3562,55.4188 37.3562,56.3564 C38.3562,57.2936 39.63744,57.7624 41.2,57.7624 Z" id="a" fill="url(#linearGradient-3)" fill-rule="nonzero"></path>
    </g>
</svg>