<?xml version="1.0" encoding="UTF-8"?>
<svg width="64px" height="64px" viewBox="0 0 64 64" version="1.1" xmlns="http://www.w3.org/2000/svg" xmlns:xlink="http://www.w3.org/1999/xlink">
    <title>tick</title>
    <defs>
        <linearGradient x1="11.1111276%" y1="44.3076214%" x2="48.1481578%" y2="72.76955%" id="linearGradient-1">
            <stop stop-color="#66B55C" stop-opacity="0.901961" offset="0%"></stop>
            <stop stop-color="#367A30" stop-opacity="0.984314" offset="100%"></stop>
        </linearGradient>
    </defs>
    <g id="tick" stroke="none" fill="none" fill-rule="evenodd" stroke-width="4">
        <g id="Tick" fill="#81CA76" stroke="url(#linearGradient-1)">
            <path d="M52.2327677,13.3986614 C52.4399014,13.4400881 52.604187,13.4863657 52.7103436,13.5288284 C52.710364,13.5288365 52.7103841,13.5288445 52.710395,13.5288473 L58.6942386,18.6865215 C58.6214246,18.6266993 58.6221689,18.6279954 58.6481131,18.7137918 C58.7114376,18.9232026 58.75,19.2117217 58.75,19.52145 C58.75,20.0855755 58.6144379,20.557135 58.5857864,20.5857864 L24.5857864,54.5857864 C24.366835,54.8047379 23.633165,54.8047379 23.4142136,54.5857864 L5.41421356,36.5857864 C5.21831788,36.3898908 5.21831788,35.5878566 5.27587917,35.5401728 L5.41421356,35.4142136 L11.4142136,29.4142136 C11.633165,29.1952621 13.366835,29.1952621 13.5857864,29.4142136 L13.6712723,29.4948186 L22.6712723,37.4948186 L24.1110859,38.774653 L25.4439764,37.3838107 L48.3137334,13.5197165 C48.4192935,13.4798363 48.5747654,13.4371547 48.7672323,13.3986614 C49.2423634,13.3036351 49.8591674,13.25 50.5,13.25 C51.1408326,13.25 51.7576366,13.3036351 52.2327677,13.3986614 Z M52.6891494,13.5101958 C52.6689895,13.4932753 52.6349196,13.4633467 52.5857864,13.4142136 Z" id="Path"></path>
        </g>
    </g>
</svg>