<?xml version="1.0" encoding="UTF-8"?>
<svg width="64px" height="64px" viewBox="0 0 64 64" version="1.1" xmlns="http://www.w3.org/2000/svg" xmlns:xlink="http://www.w3.org/1999/xlink">
    <title>wrench</title>
    <defs>
        <linearGradient x1="27.7777701%" y1="50.0000139%" x2="49.9999861%" y2="72.2222299%" id="linearGradient-1">
            <stop stop-color="#90ADDE" offset="0%"></stop>
            <stop stop-color="#5283D3" offset="100%"></stop>
        </linearGradient>
    </defs>
    <g id="Wrench" stroke="none" fill="none">
        <path d="M39.1098,6.86256 C41.798,4.17144 46.2828,3.29944 50.4668,4.58132 L45.1548,7.65168 C43.2424,8.7572 42.5864,11.20476 43.69,13.11848 L48.59,21.61552 C49.6936,23.52924 52.1388,24.1844 54.0516,23.07888 L60,19.64068 C59.6884,21.7978 58.8132,23.7522 57.3968,25.1704 C54.864,27.7058 50.9748,28.27096 47.1796,27.03908 C39.57308,27.5094 34,34.00008 34,34.00008 L30,30.00008 C30,30.00008 36.73972,24.43792 37.24084,17.08388 C36.01352,13.28664 36.57896,9.39628 39.1098,6.86256 Z" id="Path" fill="#D9D9D9" fill-rule="evenodd"></path>
        <path d="M49.6662064,2.31403896 L50.067889,2.43010115 C51.9700149,3.14813134 52.2656583,5.85162736 50.4068058,6.92605253 L46.1557474,9.3831835 C45.1988115,9.93636889 44.8704092,11.1618942 45.4225599,12.1193623 L50.322555,20.6163938 C50.8739625,21.5725731 52.0949657,21.8997244 53.0507509,21.3473197 L58.055191,18.4547325 C59.9601246,17.3536729 62.2511996,19.0746131 61.7321085,21.2089671 C61.2212901,23.3093057 60.230233,25.1635911 58.8117389,26.5838879 C55.8673579,29.5312914 51.4262636,30.3740248 46.9926622,29.0676462 C44.2902836,29.2936916 41.6397674,30.4106327 39.1495475,32.1467823 C38.1414032,32.8496477 37.2325503,33.6044762 36.4421572,34.3568516 C35.9770935,34.7995458 35.6630914,35.133281 35.5173991,35.3029614 L34.1116537,36.9401608 L27.0297374,29.8582445 L28.7269766,28.4575459 C28.7617784,28.4288247 28.8462076,28.3561368 28.973088,28.2417317 C29.1957757,28.0409393 29.4468941,27.8027058 29.7192654,27.5293707 C30.5043312,26.7415267 31.2914811,25.8393385 32.0237938,24.8433529 C33.8165059,22.4051656 34.9703642,19.8368816 35.209846,17.2608807 C33.9120809,12.8290721 34.7550727,8.3922059 37.694819,5.44911431 C40.6039887,2.53678453 45.1783691,1.38577415 49.6662064,2.31403896 Z" id="outline" stroke="#979797" stroke-width="4"></path>
        <path d="M4,50.4279006 L4,55.5857864 C4,55.8510029 4.10535684,56.1053568 4.29289322,56.2928932 L7.70710678,59.7071068 C7.89464316,59.8946432 8.14899707,60 8.41421356,60 L12.5857864,60 C12.8510029,60 13.1053568,59.8946432 13.2928932,59.7071068 L34.2928932,38.7071068 C34.6834175,38.3165825 34.6834175,37.6834175 34.2928932,37.2928932 L26.6908536,29.6908536 C26.3067347,29.3067347 25.6862167,29.2995204 25.2932711,29.6746049 L4.30952425,49.704545 C4.1118434,49.8932404 4,50.1546175 4,50.4279006 Z" id="Path" fill="#B2C8EC" fill-rule="evenodd"></path>
        <path d="M31.7573464,38 L12.7573465,57 L9.24264943,57 L7.00000002,54.7573823 L7.00000002,51.2426141 L25.9999993,32.2426529 Z" id="Path" stroke-opacity="0.33" stroke="#FFFFFF" stroke-width="2"></path>
        <path d="M35.9999729,38 L13.99998,60.0001929 C14.0002842,59.9998888 14.0000156,60 14,60 L8,60 C7.99998444,60 7.99971583,59.9998888 7.99956085,59.9997339 L3.99999473,56.0001836 C4.00008262,56.0002715 4,56.000072 4,56 L4,50 C4,49.999928 4.00008262,49.9997285 4.00023881,49.9995723 L26,28.0000271 Z" id="Path" stroke="url(#linearGradient-1)" stroke-width="4"></path>
    </g>
</svg>