<?xml version="1.0" encoding="UTF-8"?>
<svg width="64px" height="64px" viewBox="0 0 64 64" version="1.1" xmlns="http://www.w3.org/2000/svg" xmlns:xlink="http://www.w3.org/1999/xlink">
    <title>xhtml_go</title>
    <defs>
        <linearGradient x1="21.925354%" y1="26.3671875%" x2="81.2980652%" y2="73.6328125%" id="linearGradient-1">
            <stop stop-color="#AAC7EF" offset="0%"></stop>
            <stop stop-color="#0F3D92" offset="100%"></stop>
        </linearGradient>
        <linearGradient x1="27.444551%" y1="97.6921929%" x2="74.0611998%" y2="-3.75773112%" id="linearGradient-2">
            <stop stop-color="#228103" offset="0%"></stop>
            <stop stop-color="#7CB053" offset="41.8834344%"></stop>
            <stop stop-color="#338808" offset="100%"></stop>
        </linearGradient>
        <linearGradient x1="27.2052376%" y1="97.6921929%" x2="73.8564185%" y2="-2.76700921%" id="linearGradient-3">
            <stop stop-color="#99C383" offset="0%"></stop>
            <stop stop-color="#85B769" offset="42.3619792%"></stop>
            <stop stop-color="#8EBB6F" offset="100%"></stop>
        </linearGradient>
    </defs>
    <g id="xhtml_go" stroke="none" fill="none" fill-rule="evenodd" stroke-width="1">
        <g id="xhtml" transform="translate(0, 12)">
            <rect id="Rectangle" fill="url(#linearGradient-1)" x="0" y="0" width="64" height="44" rx="2"></rect>
            <rect id="light" stroke-opacity="0.5" stroke="#FFFFFF" stroke-width="4" style="mix-blend-mode: overlay;" x="5" y="6" width="53" height="31" rx="1.5"></rect>
            <rect id="dark" stroke-opacity="0.2" stroke="#000000" stroke-width="4" style="mix-blend-mode: overlay;" x="1" y="2" width="61" height="39" rx="1.5"></rect>
            <path d="M12.7759095,12.5398051 L13.4297463,14.1777672 L14.137821,12.4908832 C14.6054551,11.3768136 15.6957757,10.652 16.9040112,10.652 L17.3651602,10.652 L17.3651601,13.2735443 L17.3982026,13.2070408 C17.3852171,13.2331763 17.3734895,13.2594902 17.3651601,13.2861611 L17.36516,14.0188023 C17.4509331,14.2391655 17.6146525,14.4261958 17.8295742,14.5372043 C18.039944,14.4272444 18.205922,14.2442378 18.2937536,14.021632 L18.2937534,10.652 L18.94916,10.652 C20.6060142,10.652 21.94916,11.9951458 21.94916,13.652 L21.94916,18.464 L23.40916,18.464 L23.40916,13.652 C23.40916,11.9951458 24.7523058,10.652 26.4091601,10.652 L27.2793601,10.652 L27.2793599,14.3784717 C27.3764986,14.4715267 27.4929177,14.5443673 27.62226,14.5903776 C27.7516023,14.5443673 27.8680214,14.4715267 27.9651602,14.3784716 L27.9651601,13.7255284 C27.7867126,13.5556902 27.5451454,13.452 27.27936,13.452 L27.9651601,13.4520001 L27.96516,12.652 L27.96516,10.652 L37.1119956,10.652 L37.1119956,12.652 L37.1119955,14.6500732 L37.1303675,14.651076 L37.1472945,14.6502247 L37.1472944,12.652 L37.1472944,10.652 L39.8072611,10.652 C41.047465,10.652 42.1383012,11.4112081 42.5879537,12.52827 L44.2091224,12.0980963 C44.7394894,11.2213785 45.7005195,10.652 46.7747757,10.652 L49.5615934,10.652 C49.642504,10.652 49.7233067,10.6552493 49.8037808,10.66216 C49.8842655,10.6552487 49.9650785,10.652 50.046,10.652 L51.63,10.652 C52.541585,10.652 53.3582076,11.0585827 53.9068101,11.7017616 L57.8742748,12.7539362 L54.6250805,13.5545761 C54.6294707,13.5863427 54.63,13.6191095 54.63,13.652 L54.63,27.0436515 L58.5020188,27.012129 C60.6281342,26.99482 62.0970118,29.1335692 61.3176088,31.1117495 L60.9283484,32.09972 C60.4765884,33.2463191 59.3695675,34 58.1371809,34 L50.046,34 C50.035969,34.0000698 50.0271187,34.0001313 50.0189764,34.0001502 C50.0063472,34.0002374 49.9927707,34.0001318 49.9758365,34 L49.0056421,34 C47.4288664,34 46.1374451,32.7839137 46.0172556,31.2399019 C45.5066195,31.6391586 44.8654862,31.872 44.1787191,31.872 L42.4400388,31.872 C41.8838423,31.872 41.3572864,31.7192187 40.9062514,31.4478093 C40.69171,32.8838426 39.4523533,34 37.9395047,34 L37.0061216,34 C36.2073299,34 35.481799,33.6879095 34.9464497,33.1771003 C34.4108122,33.687962 33.6850977,34 32.8865029,34 L31.4847171,34 C30.8264272,34 30.2176586,33.7879741 29.7249386,33.4259921 C29.2322156,33.7879751 28.6234483,34 27.96516,34 L26.40916,34 C24.7523058,34 23.40916,32.6568542 23.40916,31 L23.40916,25.32 L21.94916,25.32 L21.94916,31 C21.94916,32.6568542 20.6060142,34 18.9491599,34 L18.7852979,34 L18.785298,30 C18.6324658,30 18.4904402,30.0331607 18.36516,30.0931898 L18.36516,31 C18.36516,30.7257221 18.2547376,30.4772348 18.0757539,30.2967299 C17.7969142,30.5778689 17.690392,31.0183245 17.8790527,31.4227524 L17.3651601,30.3211318 L17.3651601,34 L17.2238351,34 C15.9977784,34 14.8951044,33.2539361 14.4390747,32.1158448 L13.3518198,29.4024346 L12.3027689,32.0906275 C11.8534478,33.2420127 10.7439881,34 9.50803604,34 L8.05488841,34 C5.86798121,34 4.41595747,31.7353535 5.32863004,29.7479955 L9.01656216,21.7174688 L5.75130643,14.956715 C4.78920865,12.9646792 6.24053325,10.652 8.45273547,10.652 L9.98968939,10.652 C11.2171797,10.652 12.3208401,11.3997858 12.7759095,12.5398051 Z M42.7483076,13.0601845 L43.3080379,15.8417827 L43.7954345,13.2617592 L42.7334235,13.0000078 Z" stroke-opacity="0.5" stroke="#2A4C98" stroke-width="4" fill="#FFFFFF" fill-rule="nonzero"></path>
            <g id="go" transform="translate(24, 15)">
                <path d="M31,0 L31,14 L39,14 L39,21 C39,22 38.7071068,22.2928932 38,23 L26,35 C25.6043672,35.3956328 23,38 22,38 L20,38 C19,38 17.7071068,36.7071068 17,36 L4,23 C3.29289322,22.2928932 3,22 3,21 L3,14 L11,14 L11,1 L31,0 Z" id="outter" fill="url(#linearGradient-2)" transform="translate(21, 19) scale(1, -1) rotate(-90) translate(-21, -19)"></path>
                <path d="M27.5,4.5 L27.5,17.5 L35.5,17.5 L35.5,19.5 C35.5,20.275 35.5999439,20.4039845 34.5,21.5 L23.5,32.5 C22.9500281,33.0480078 22.2777778,33.5 21.5,33.5 C20.7222222,33.5 20.0499719,33.0480078 19.5,32.5 L8.5,21.5 C7.40005612,20.4039845 7.5,20.275 7.5,19.5 L7.5,17.5 L15.5,17.5 L15.5,4.5 L27.5,4.5 Z" id="inner" fill="#A9CC90" transform="translate(21.5, 19) scale(1, -1) rotate(-90) translate(-21.5, -19)"></path>
                <path d="M23.5,8.5 L23.5,20.875 L31.5,20.875 C31.5,21.2695638 23.5,28.5416667 23.5,28.5416667 C22.7887417,29.2153086 21.9165963,29.5 21.5,29.5 C21.0834037,29.5 20.2071068,29.2193107 19.5,28.5416667 C14.1666667,23.6741194 11.5,21.1185638 11.5,20.875 L19.5,20.875 L19.5,8.5 L23.5,8.5 Z" id="bullet" fill="url(#linearGradient-3)" transform="translate(21.5, 19) scale(1, -1) rotate(-90) translate(-21.5, -19)"></path>
            </g>
        </g>
    </g>
</svg>