<?xml version="1.0" encoding="UTF-8" standalone="no"?>
<svg width="580px" height="304px" viewBox="0 0 580 304" version="1.1" xmlns="http://www.w3.org/2000/svg" xmlns:xlink="http://www.w3.org/1999/xlink" xmlns:sketch="http://www.bohemiancoding.com/sketch/ns">
    <title>coverage_heatmap</title>
    <description>Created with Sketch (http://www.bohemiancoding.com/sketch)</description>
    <defs>
        <radialGradient cx="84.7723105%" cy="31.2527412%" fx="84.7723105%" fy="31.2527412%" r="72.466749%" id="radialGradient-1">
            <stop stop-color="#FFFFFF" stop-opacity="0.8" offset="0%"></stop>
            <stop stop-color="#89BCD7" stop-opacity="0.774141984" offset="20.0632392%"></stop>
            <stop stop-color="#7EB5D3" offset="100%"></stop>
        </radialGradient>
        <radialGradient cx="18.060437%" cy="72.9290022%" fx="18.060437%" fy="72.9290022%" r="38.5957688%" id="radialGradient-2">
            <stop stop-color="#FFFFFF" stop-opacity="0.8" offset="0%"></stop>
            <stop stop-color="#7EB5D3" stop-opacity="0.5" offset="100%"></stop>
        </radialGradient>
    </defs>
    <g id="Page-1" stroke="none" stroke-width="1" fill="none" fill-rule="evenodd" sketch:type="MSPage">
        <g id="coverage_heatmap" sketch:type="MSArtboardGroup">
            <path d="M84.125,297.082611 L301.906426,297.082601 C301.906426,297.082601 311.616411,287.061777 315.496094,265.550781 C319.375777,244.039786 314.389669,233.874987 315.496094,221.734375 C316.602519,209.593763 315.533851,209.971648 321.679688,197.699219 C327.825525,185.426789 324.114683,182.020025 339.199219,174.402344 C354.283755,166.784662 379.5,168.5 379.5,168.5 C379.5,168.5 416.41931,158.43805 437.219025,168.5 C458.018739,178.561951 461.89203,179.07384 460.53125,207.699219 C459.170472,236.324597 432.605469,265.550781 432.605469,265.550781 L427.679688,297.082611 L492.867188,297.082611 L492.867188,12.2539062 L437.219029,12.2539062 C437.219029,12.2539062 432.418334,21.8794841 422.347656,36.21875 C412.276979,50.5580161 402.610916,61.7865279 400.622121,64.3628935 L396.644531,69.515625 C396.644531,69.515625 390.350878,90.8497561 373.347656,102.402344 C356.344436,113.954933 344.875209,113.667203 327.199219,116.699219 C309.523229,119.731235 305.963115,124.425766 290,116.699219 C274.036883,108.972673 275.941384,98.0427821 269.125,88.5898438 C262.308617,79.1369053 266.847266,86.5550788 255.976562,69.515625 C245.10586,52.476171 239.03336,46.0776941 235.050781,35.1796875 C231.068203,24.2816808 235.050781,12.2539062 235.050781,12.2539062 L84.125,12.2539062 L84.125,297.082611 Z" id="Path-20" fill="url(#radialGradient-1)" sketch:type="MSShapeGroup"></path>
            <path d="M84.125,297.082611 L301.906426,297.082601 C301.906426,297.082601 311.616411,287.061777 315.496094,265.550781 C319.375777,244.039786 314.389669,233.874987 315.496094,221.734375 C316.602519,209.593763 315.533851,209.971648 321.679688,197.699219 C327.825525,185.426789 324.114683,182.020025 339.199219,174.402344 C354.283755,166.784662 379.5,168.5 379.5,168.5 C379.5,168.5 416.41931,158.43805 437.219025,168.5 C458.018739,178.561951 461.89203,179.07384 460.53125,207.699219 C459.170472,236.324597 432.605469,265.550781 432.605469,265.550781 L427.679688,297.082611 L492.867188,297.082611 L492.867188,12.2539062 L437.219029,12.2539062 C437.219029,12.2539062 432.418334,21.8794841 422.347656,36.21875 C412.276979,50.5580161 402.610916,61.7865279 400.622121,64.3628935 L396.644531,69.515625 C396.644531,69.515625 390.350878,90.8497561 373.347656,102.402344 C356.344436,113.954933 344.875209,113.667203 327.199219,116.699219 C309.523229,119.731235 305.963115,124.425766 290,116.699219 C274.036883,108.972673 275.941384,98.0427821 269.125,88.5898438 C262.308617,79.1369053 266.847266,86.5550788 255.976562,69.515625 C245.10586,52.476171 239.03336,46.0776941 235.050781,35.1796875 C231.068203,24.2816808 235.050781,12.2539062 235.050781,12.2539062 L84.125,12.2539062 L84.125,297.082611 Z" id="Path-20-copy" fill="url(#radialGradient-2)" sketch:type="MSShapeGroup"></path>
            <path d="M84.125,297.082611 L301.906426,297.082601 C301.906426,297.082601 311.616411,287.061777 315.496094,265.550781 C319.375777,244.039786 314.389669,233.874987 315.496094,221.734375 C316.602519,209.593763 315.533851,209.971648 321.679688,197.699219 C327.825525,185.426789 324.114683,182.020025 339.199219,174.402344 C354.283755,166.784662 379.5,168.5 379.5,168.5 C379.5,168.5 416.41931,158.43805 437.219025,168.5 C458.018739,178.561951 461.89203,179.07384 460.53125,207.699219 C459.170472,236.324597 432.605469,265.550781 432.605469,265.550781 L427.679688,297.082611 L492.867188,297.082611 L492.867188,12.2539062 L437.219029,12.2539062 C437.219029,12.2539062 432.418334,21.8794841 422.347656,36.21875 C412.276979,50.5580161 402.610916,61.7865279 400.622121,64.3628935 L396.644531,69.515625 C396.644531,69.515625 390.350878,90.8497561 373.347656,102.402344 C356.344436,113.954933 344.875209,113.667203 327.199219,116.699219 C309.523229,119.731235 305.963115,124.425766 290,116.699219 C274.036883,108.972673 275.941384,98.0427821 269.125,88.5898438 C262.308617,79.1369053 266.847266,86.5550788 255.976562,69.515625 C245.10586,52.476171 239.03336,46.0776941 235.050781,35.1796875 C231.068203,24.2816808 235.050781,12.2539062 235.050781,12.2539062 L84.125,12.2539062 L84.125,297.082611 Z" id="Path-20-copy-2" stroke="#000000" sketch:type="MSShapeGroup"></path>
        </g>
    </g>
</svg>