<?xml version="1.0" encoding="UTF-8" standalone="no"?>
<svg width="580px" height="304px" viewBox="0 0 580 304" version="1.1" xmlns="http://www.w3.org/2000/svg" xmlns:xlink="http://www.w3.org/1999/xlink" xmlns:sketch="http://www.bohemiancoding.com/sketch/ns">
    <title>coverage_feature</title>
    <description>Created with Sketch (http://www.bohemiancoding.com/sketch)</description>
    <defs>
        <radialGradient cx="18.060437%" cy="72.9290022%" fx="18.060437%" fy="72.9290022%" r="38.5957688%" id="radialGradient-1">
            <stop stop-color="#E4F0F6" offset="0%"></stop>
            <stop stop-color="#7EB5D3" stop-opacity="0.5" offset="100%"></stop>
        </radialGradient>
    </defs>
    <g id="Page-1" stroke="none" stroke-width="1" fill="none" fill-rule="evenodd" sketch:type="MSPage">
        <g id="coverage_feature" sketch:type="MSArtboardGroup" stroke="#000000">
            <path d="M82.125,296.082611 L299.906426,296.082601 C299.906426,296.082601 309.616411,286.061777 313.496094,264.550781 C317.375777,243.039786 312.389669,232.874987 313.496094,220.734375 C314.602519,208.593763 313.533851,208.971648 319.679688,196.699219 C325.825525,184.426789 322.114683,181.020025 337.199219,173.402344 C352.283755,165.784662 377.5,167.5 377.5,167.5 C377.5,167.5 414.41931,157.43805 435.219025,167.5 C456.018739,177.561951 459.89203,178.07384 458.53125,206.699219 C457.170472,235.324597 430.605469,264.550781 430.605469,264.550781 L425.679688,296.082611 L490.867188,296.082611 L490.867188,11.2539062 L435.219029,11.2539062 C435.219029,11.2539062 430.418334,20.8794841 420.347656,35.21875 C410.276979,49.5580161 400.610916,60.7865279 398.622121,63.3628935 L394.644531,68.515625 C394.644531,68.515625 388.350878,89.8497561 371.347656,101.402344 C354.344436,112.954933 342.875209,112.667203 325.199219,115.699219 C307.523229,118.731235 303.963115,123.425766 288,115.699219 C272.036883,107.972673 273.941384,97.0427821 267.125,87.5898438 C260.308617,78.1369053 264.847266,85.5550788 253.976562,68.515625 C243.10586,51.476171 237.03336,45.0776941 233.050781,34.1796875 C229.068203,23.2816808 233.050781,11.2539062 233.050781,11.2539062 L82.125,11.2539062 L82.125,296.082611 Z" id="Path-20-copy-2" fill="#C1DCEA" sketch:type="MSShapeGroup"></path>
            <path d="M394.02561,88.2344495 C397.257964,73.8976249 415.086046,64.6949349 431.878281,65.0126646 C448.670516,65.3303944 455.050354,70.8095806 460.437498,82.9218742 C465.824642,95.0341678 453.400392,113.402343 453.400392,113.402343 C453.400392,113.402343 436.031896,128.701254 418.733551,123.314979 C401.435205,117.928704 390.793257,102.571274 394.02561,88.2344495 Z M82.125,296.082611 L299.906426,296.082601 C299.906426,296.082601 309.616411,286.061777 313.496094,264.550781 C317.375777,243.039786 312.389669,232.874987 313.496094,220.734375 C314.602519,208.593763 313.533851,208.971648 319.679688,196.699219 C325.825525,184.426789 322.114683,181.020025 337.199219,173.402344 C352.283755,165.784662 377.5,167.5 377.5,167.5 C377.5,167.5 414.41931,157.43805 435.219025,167.5 C456.018739,177.561951 459.89203,178.07384 458.53125,206.699219 C457.170472,235.324597 430.605469,264.550781 430.605469,264.550781 L425.679688,296.082611 L490.867188,296.082611 L490.867188,11.2539062 L435.219029,11.2539062 C435.219029,11.2539062 430.418334,20.8794841 420.347656,35.21875 C410.276979,49.5580161 400.610916,60.7865279 398.622121,63.3628935 L394.644531,68.515625 C394.644531,68.515625 388.350878,89.8497561 371.347656,101.402344 C354.344436,112.954933 342.875209,112.667203 325.199219,115.699219 C307.523229,118.731235 303.963115,123.425766 288,115.699219 C272.036883,107.972673 273.941384,97.0427821 267.125,87.5898438 C260.308617,78.1369053 264.847266,85.5550788 253.976562,68.515625 C243.10586,51.476171 237.03336,45.0776941 233.050781,34.1796875 C229.068203,23.2816808 233.050781,11.2539062 233.050781,11.2539062 L82.125,11.2539062 L82.125,296.082611 Z M91.2910153,195.291016 C91.2910153,195.291016 98.2690474,166.878458 120.882812,152.625 C143.496577,138.371541 179.548828,139.662109 179.548828,139.662109 C179.548828,139.662109 208.824897,140.359941 228.197266,155.607422 C247.569634,170.854904 254.251953,198.458984 254.251953,198.458984 C254.251953,198.458984 256.783824,224.153855 243.474603,243.976566 C230.584947,263.174376 221.751947,266.236331 221.751947,266.236331 C221.751947,266.236331 212.632087,275.635876 192.085939,279.328121 C171.539791,283.020368 148.900392,279.328118 148.900392,279.328118 C148.900392,279.328118 120.755757,273.066585 105.142578,250.291016 C89.5293987,227.515447 91.2910153,195.291016 91.2910153,195.291016 Z" id="Path-20-copy" fill="url(#radialGradient-1)" sketch:type="MSShapeGroup"></path>
            <path d="M82.125,296.082611 L299.906426,296.082601 C299.906426,296.082601 309.616411,286.061777 313.496094,264.550781 C317.375777,243.039786 312.389669,232.874987 313.496094,220.734375 C314.602519,208.593763 313.533851,208.971648 319.679688,196.699219 C325.825525,184.426789 322.114683,181.020025 337.199219,173.402344 C352.283755,165.784662 377.5,167.5 377.5,167.5 C377.5,167.5 414.41931,157.43805 435.219025,167.5 C456.018739,177.561951 459.89203,178.07384 458.53125,206.699219 C457.170472,235.324597 430.605469,264.550781 430.605469,264.550781 L425.679688,296.082611 L490.867188,296.082611 L490.867188,11.2539062 L435.219029,11.2539062 C435.219029,11.2539062 430.418334,20.8794841 420.347656,35.21875 C410.276979,49.5580161 400.610916,60.7865279 398.622121,63.3628935 L394.644531,68.515625 C394.644531,68.515625 388.350878,89.8497561 371.347656,101.402344 C354.344436,112.954933 342.875209,112.667203 325.199219,115.699219 C307.523229,118.731235 303.963115,123.425766 288,115.699219 C272.036883,107.972673 273.941384,97.0427821 267.125,87.5898438 C260.308617,78.1369053 264.847266,85.5550788 253.976562,68.515625 C243.10586,51.476171 237.03336,45.0776941 233.050781,34.1796875 C229.068203,23.2816808 233.050781,11.2539062 233.050781,11.2539062 L82.125,11.2539062 L82.125,296.082611 Z" id="Path-20-copy-2" sketch:type="MSShapeGroup"></path>
            <path d="M82.125,159.699219 C82.125,159.699219 109.529297,115.699224 158.177734,115.699219 C206.826172,115.699219 219.953127,117.98886 253.976562,153.668259 C288,189.347656 279.548826,220.8125 270.011719,247.255859 C260.474609,273.699219 221.660156,296.082611 221.660156,296.082611 L299.906426,296.082601 C299.906426,296.082601 309.616411,286.061777 313.496094,264.550781 C317.375777,243.039786 312.389669,232.874987 313.496094,220.734375 C314.602519,208.593763 313.533851,208.971648 319.679688,196.699219 C325.825525,184.426789 322.114683,181.020025 337.199219,173.402344 C352.283755,165.784662 377.5,167.5 377.5,167.5 C377.5,167.5 414.41931,157.43805 435.219025,167.5 C456.018739,177.561951 459.89203,178.07384 458.53125,206.699219 C457.170472,235.324597 430.605469,264.550781 430.605469,264.550781 L425.679688,296.082611 L490.867188,296.082611 L490.867188,11.2539062 L435.219025,11.2539062 L413.326172,46.3867188 C413.326172,46.3867188 453.890799,45.6207747 467.232422,62.7753906 C480.574046,79.9300063 467.232422,115.699219 467.232422,115.699219 C467.232422,115.699219 453.867001,144.829816 425.679688,140.626953 C397.492373,136.424092 380.326172,119.738281 371.347656,101.402344 C348.880859,113.404297 342.875209,112.667203 325.199219,115.699219 C307.523229,118.731235 303.963115,123.425766 288,115.699219 C272.036883,107.972673 273.941384,97.0427821 267.125,87.5898438 C260.308617,78.1369053 264.847266,85.5550788 253.976562,68.515625 C243.10586,51.476171 237.03336,45.0776941 233.050781,34.1796875 C229.068203,23.2816808 233.050781,11.2539062 233.050781,11.2539062 L82.125,11.2539062 L82.125,159.699219 Z" id="Path-20-copy-3" fill="#7EB5D3" sketch:type="MSShapeGroup"></path>
            <path d="M410.312247,90.5018644 C412.062203,82.786027 421.714108,77.8332943 430.805217,78.0042911 C439.896327,78.1752879 443.350293,81.1240936 446.266826,87.6427259 C449.18336,94.1613582 442.457024,104.046801 442.457024,104.046801 C442.457024,104.046801 433.053933,112.280417 423.688822,109.381614 C414.32371,106.482812 408.56229,98.2177019 410.312247,90.5018644 Z" id="Path-39-copy" fill="#CCE2EE" sketch:type="MSShapeGroup"></path>
            <path d="M129.030367,202.9601 C129.030367,202.9601 132.578961,188.687216 144.07892,181.527074 C155.578879,174.366931 173.912819,175.01524 173.912819,175.01524 C173.912819,175.01524 188.800813,175.365792 198.652399,183.025276 C208.503984,190.68476 211.902198,204.551511 211.902198,204.551511 C211.902198,204.551511 213.18975,217.459181 206.421505,227.417005 C199.866625,237.060914 195.374709,238.59907 195.374709,238.59907 C195.374709,238.59907 190.736914,243.320876 180.288416,245.175654 C169.839919,247.030433 158.326924,245.175653 158.326924,245.175653 C158.326924,245.175653 144.014308,242.030208 136.074413,230.589032 C128.134518,219.147857 129.030367,202.9601 129.030367,202.9601 Z" id="Path-39" fill="#CCE2EE" sketch:type="MSShapeGroup"></path>
        </g>
    </g>
</svg>