<?xml version="1.0" encoding="UTF-8" standalone="no"?>
<svg width="580px" height="219px" viewBox="0 0 580 219" version="1.1" xmlns="http://www.w3.org/2000/svg" xmlns:xlink="http://www.w3.org/1999/xlink" xmlns:sketch="http://www.bohemiancoding.com/sketch/ns">
    <title>coverage</title>
    <description>Created with Sketch (http://www.bohemiancoding.com/sketch)</description>
    <defs>
        <radialGradient cx="84.7723105%" cy="31.2527412%" fx="84.7723105%" fy="31.2527412%" r="72.466749%" id="radialGradient-1">
            <stop stop-color="#FFFFFF" stop-opacity="0.8" offset="0%"></stop>
            <stop stop-color="#89BCD7" stop-opacity="0.774141984" offset="20.0632392%"></stop>
            <stop stop-color="#7EB5D3" offset="100%"></stop>
        </radialGradient>
        <radialGradient cx="18.060437%" cy="72.9290022%" fx="18.060437%" fy="72.9290022%" r="38.5957688%" id="radialGradient-2">
            <stop stop-color="#FFFFFF" stop-opacity="0.8" offset="0%"></stop>
            <stop stop-color="#7EB5D3" stop-opacity="0.5" offset="100%"></stop>
        </radialGradient>
        <filter x="-20%" y="-20%" width="140%" height="140%" filterUnits="objectBoundingBox" id="filter-3">
            <feOffset dx="1" dy="1" in="SourceAlpha" result="shadowOffsetOuter1"></feOffset>
            <feGaussianBlur stdDeviation="0" in="shadowOffsetOuter1" result="shadowBlurOuter1"></feGaussianBlur>
            <feColorMatrix values="0 0 0 0 0   0 0 0 0 0   0 0 0 0 0  0 0 0 0.7 0" in="shadowBlurOuter1" type="matrix" result="shadowMatrixOuter1"></feColorMatrix>
            <feMerge>
                <feMergeNode in="shadowMatrixOuter1"></feMergeNode>
                <feMergeNode in="SourceGraphic"></feMergeNode>
            </feMerge>
        </filter>
        <filter x="-20%" y="-20%" width="140%" height="140%" filterUnits="objectBoundingBox" id="filter-4">
            <feOffset dx="1" dy="1" in="SourceAlpha" result="shadowOffsetOuter1"></feOffset>
            <feGaussianBlur stdDeviation="0" in="shadowOffsetOuter1" result="shadowBlurOuter1"></feGaussianBlur>
            <feColorMatrix values="0 0 0 0 0   0 0 0 0 0   0 0 0 0 0  0 0 0 0.7 0" in="shadowBlurOuter1" type="matrix" result="shadowMatrixOuter1"></feColorMatrix>
            <feMerge>
                <feMergeNode in="shadowMatrixOuter1"></feMergeNode>
                <feMergeNode in="SourceGraphic"></feMergeNode>
            </feMerge>
        </filter>
    </defs>
    <g id="Page-1" stroke="none" stroke-width="1" fill="none" fill-rule="evenodd" sketch:type="MSPage">
        <g id="coverage" sketch:type="MSArtboardGroup">
            <g id="Path-20-+-Path-20-copy-+-Path-20-copy-2" sketch:type="MSLayerGroup" transform="translate(290.000000, 16.000000)">
                <path d="M0,169 L128.939725,168.999994 C128.939725,168.999994 134.688621,163.054248 136.985627,150.290933 C139.282633,137.527619 136.330557,131.496447 136.985627,124.292947 C137.640697,117.089448 137.007981,117.313662 140.646687,110.03195 C144.285393,102.750238 142.088351,100.728872 151.019305,96.2090038 C159.950259,91.6891358 174.879795,92.7069126 174.879795,92.7069126 C174.879795,92.7069126 196.738251,86.7367644 209.052935,92.7069126 C221.367619,98.677061 223.66084,98.9807851 222.855177,115.965341 C222.049514,132.949896 206.321432,150.290933 206.321432,150.290933 L203.405073,169 L242,169 L242,-1.8774053e-15 L209.052937,-1.8774053e-15 C209.052937,-1.8774053e-15 206.210637,5.71123146 200.248189,14.2192782 C194.285741,22.7273251 188.562849,29.3896398 187.385363,30.9182983 C186.207877,32.4469566 185.03039,33.9756152 185.03039,33.9756152 C185.03039,33.9756152 181.304168,46.6339888 171.237237,53.4885904 C161.170306,60.3431928 154.379833,60.1724715 143.914582,61.971485 C133.449331,63.7704986 131.341529,66.5559474 121.890403,61.971485 C112.439276,57.3870236 113.566855,50.9018922 109.531145,45.2930945 C105.495436,39.6842967 108.18259,44.0857889 101.746478,33.9756152 C95.3103673,23.8654413 91.7150817,20.068975 89.3571551,13.6027618 C86.9992289,7.13654861 89.3571551,-1.8774053e-15 89.3571551,-1.8774053e-15 L0,-1.8774053e-15 L0,169 Z" id="Path-20" fill="url(#radialGradient-1)" sketch:type="MSShapeGroup"></path>
                <path d="M0,169 L128.939725,168.999994 C128.939725,168.999994 134.688621,163.054248 136.985627,150.290933 C139.282633,137.527619 136.330557,131.496447 136.985627,124.292947 C137.640697,117.089448 137.007981,117.313662 140.646687,110.03195 C144.285393,102.750238 142.088351,100.728872 151.019305,96.2090038 C159.950259,91.6891358 174.879795,92.7069126 174.879795,92.7069126 C174.879795,92.7069126 196.738251,86.7367644 209.052935,92.7069126 C221.367619,98.677061 223.66084,98.9807851 222.855177,115.965341 C222.049514,132.949896 206.321432,150.290933 206.321432,150.290933 L203.405073,169 L242,169 L242,-1.8774053e-15 L209.052937,-1.8774053e-15 C209.052937,-1.8774053e-15 206.210637,5.71123146 200.248189,14.2192782 C194.285741,22.7273251 188.562849,29.3896398 187.385363,30.9182983 C186.207877,32.4469566 185.03039,33.9756152 185.03039,33.9756152 C185.03039,33.9756152 181.304168,46.6339888 171.237237,53.4885904 C161.170306,60.3431928 154.379833,60.1724715 143.914582,61.971485 C133.449331,63.7704986 131.341529,66.5559474 121.890403,61.971485 C112.439276,57.3870236 113.566855,50.9018922 109.531145,45.2930945 C105.495436,39.6842967 108.18259,44.0857889 101.746478,33.9756152 C95.3103673,23.8654413 91.7150817,20.068975 89.3571551,13.6027618 C86.9992289,7.13654861 89.3571551,-1.8774053e-15 89.3571551,-1.8774053e-15 L0,-1.8774053e-15 L0,169 Z" id="Path-20-copy" fill="url(#radialGradient-2)" sketch:type="MSShapeGroup"></path>
                <path d="M0,169 L128.939725,168.999994 C128.939725,168.999994 134.688621,163.054248 136.985627,150.290933 C139.282633,137.527619 136.330557,131.496447 136.985627,124.292947 C137.640697,117.089448 137.007981,117.313662 140.646687,110.03195 C144.285393,102.750238 142.088351,100.728872 151.019305,96.2090038 C159.950259,91.6891358 174.879795,92.7069126 174.879795,92.7069126 C174.879795,92.7069126 196.738251,86.7367644 209.052935,92.7069126 C221.367619,98.677061 223.66084,98.9807851 222.855177,115.965341 C222.049514,132.949896 206.321432,150.290933 206.321432,150.290933 L203.405073,169 L242,169 L242,-1.8774053e-15 L209.052937,-1.8774053e-15 C209.052937,-1.8774053e-15 206.210637,5.71123146 200.248189,14.2192782 C194.285741,22.7273251 188.562849,29.3896398 187.385363,30.9182983 C186.207877,32.4469566 185.03039,33.9756152 185.03039,33.9756152 C185.03039,33.9756152 181.304168,46.6339888 171.237237,53.4885904 C161.170306,60.3431928 154.379833,60.1724715 143.914582,61.971485 C133.449331,63.7704986 131.341529,66.5559474 121.890403,61.971485 C112.439276,57.3870236 113.566855,50.9018922 109.531145,45.2930945 C105.495436,39.6842967 108.18259,44.0857889 101.746478,33.9756152 C95.3103673,23.8654413 91.7150817,20.068975 89.3571551,13.6027618 C86.9992289,7.13654861 89.3571551,-1.8774053e-15 89.3571551,-1.8774053e-15 L0,-1.8774053e-15 L0,169 Z" id="Path-20-copy-2" stroke="#000000" sketch:type="MSShapeGroup"></path>
            </g>
            <g id="Path-20-+-Path-20-copy-+-Path-20-copy-3" sketch:type="MSLayerGroup" transform="translate(30.000000, 17.000000)" stroke="#000000" fill="#7EB5D3">
                <path d="M0,169 L128.939725,168.999994 C128.939725,168.999994 134.688621,163.054248 136.985627,150.290933 C139.282633,137.527619 136.330557,131.496447 136.985627,124.292947 C137.640697,117.089448 137.007981,117.313662 140.646687,110.03195 C144.285393,102.750238 142.088351,100.728872 151.019305,96.2090038 C159.950259,91.6891358 174.879795,92.7069126 174.879795,92.7069126 C174.879795,92.7069126 196.738251,86.7367644 209.052935,92.7069126 C221.367619,98.677061 223.66084,98.9807851 222.855177,115.965341 C222.049514,132.949896 206.321432,150.290933 206.321432,150.290933 L203.405073,169 L242,169 L242,-1.8774053e-15 L209.052937,-1.8774053e-15 C209.052937,-1.8774053e-15 206.210637,5.71123146 200.248189,14.2192782 C194.285741,22.7273251 188.562849,29.3896398 187.385363,30.9182983 C186.207877,32.4469566 185.03039,33.9756152 185.03039,33.9756152 C185.03039,33.9756152 181.304168,46.6339888 171.237237,53.4885904 C161.170306,60.3431928 154.379833,60.1724715 143.914582,61.971485 C133.449331,63.7704986 131.341529,66.5559474 121.890403,61.971485 C112.439276,57.3870236 113.566855,50.9018922 109.531145,45.2930945 C105.495436,39.6842967 108.18259,44.0857889 101.746478,33.9756152 C95.3103673,23.8654413 91.7150817,20.068975 89.3571551,13.6027618 C86.9992289,7.13654861 89.3571551,-1.8774053e-15 89.3571551,-1.8774053e-15 L0,-1.8774053e-15 L0,169 Z" id="Path-20-copy-2" sketch:type="MSShapeGroup"></path>
            </g>
            <text id="Ocean" filter="url(#filter-3)" sketch:type="MSTextLayer" font-family="Proxima Nova" font-size="20" font-weight="260" fill="#FFFFFF">
                <tspan x="40" y="75">Ocean</tspan>
            </text>
            <text id="Ocean" filter="url(#filter-4)" sketch:type="MSTextLayer" font-family="Proxima Nova" font-size="20" font-weight="260" fill="#FFFFFF">
                <tspan x="300" y="75">Ocean</tspan>
                <tspan x="300" y="99">Temperature</tspan>
            </text>
            <text id="Feature-and-Attribut" sketch:type="MSTextLayer" font-family="Proxima Nova" font-size="14" font-weight="260" sketch:alignment="middle" fill="#000000">
                <tspan x="87.88" y="206">Feature and Attribute</tspan>
            </text>
            <text id="Coverage-and-Measure" sketch:type="MSTextLayer" font-family="Proxima Nova" font-size="14" font-weight="260" sketch:alignment="middle" fill="#000000">
                <tspan x="340.761" y="206">Coverage and Measure</tspan>
            </text>
        </g>
    </g>
</svg>