<?xml version="1.0" encoding="UTF-8" standalone="no"?>
<svg width="372px" height="162px" viewBox="0 0 372 162" version="1.1" xmlns="http://www.w3.org/2000/svg" xmlns:xlink="http://www.w3.org/1999/xlink" xmlns:sketch="http://www.bohemiancoding.com/sketch/ns">
    <!-- Generator: Sketch 3.3 (11970) - http://www.bohemiancoding.com/sketch -->
    <title>line-casing-buffers</title>
    <desc>Created with Sketch.</desc>
    <defs></defs>
    <g id="Page-1" stroke="none" stroke-width="1" fill="none" fill-rule="evenodd" sketch:type="MSPage">
        <g id="line-casing-buffers" sketch:type="MSArtboardGroup">
            <path d="M20.0175781,103.550781 L125.938846,119.882012 L174.017578,93.4980469 L194.990234,93.4980469 L141.999023,122.739258 L322.249023,150.489258 L248.999023,149.989258 L44.0195313,120.332031 L20.0175781,103.550781 Z" id="Path-1-Copy-2" fill="#000000" sketch:type="MSShapeGroup"></path>
            <path d="M25.0136719,25.026 L126.995117,40.2490234 L177.990234,11.4980469 L189.495117,11.4980469 L135.499023,41.7490234 L307.249023,68.2392578 L263.749023,67.7392578 L39.5136719,35.026 L25.0136719,25.026 Z" id="Path-1-Copy-3" fill="#44FF88" sketch:type="MSShapeGroup"></path>
            <text id="Inner-line" sketch:type="MSTextLayer" font-family="Proxima Nova" font-size="13" font-weight="526" fill="#000000">
                <tspan x="279" y="24">Inner line</tspan>
            </text>
            <text id="Outer-line" sketch:type="MSTextLayer" font-family="Proxima Nova" font-size="13" font-weight="526" fill="#000000">
                <tspan x="280" y="105">Outer line</tspan>
            </text>
            <path d="M7,93 L257,93 L338.039062,151.039062 L88.0390625,151.039062 L7,93 Z" id="Rectangle-1" stroke="#979797" stroke-width="2" sketch:type="MSShapeGroup"></path>
            <path d="M7,12 L257,12 L338.039062,70.0390625 L88.0390625,70.0390625 L7,12 Z" id="Rectangle-1-Copy" stroke="#979797" stroke-width="2" sketch:type="MSShapeGroup"></path>
        </g>
    </g>
</svg>