<?xml version="1.0" encoding="UTF-8" standalone="no"?>
<svg width="504px" height="318px" viewBox="0 0 504 318" version="1.1" xmlns="http://www.w3.org/2000/svg" xmlns:xlink="http://www.w3.org/1999/xlink" xmlns:sketch="http://www.bohemiancoding.com/sketch/ns">
    <title>layer</title>
    <description>Created with Sketch (http://www.bohemiancoding.com/sketch)</description>
    <defs></defs>
    <g id="Page-1" stroke="none" stroke-width="1" fill="none" fill-rule="evenodd" sketch:type="MSPage">
        <g id="layer" sketch:type="MSArtboardGroup">
            <path d="M17.8242188,298.941406 L419.90625,297.914062 L482.839844,259.015625 L116.941406,259.53125 L17.8242188,298.941406 Z" id="Path-1" stroke="#000000" fill="#69CA14" sketch:type="MSShapeGroup"></path>
            <path d="M17.8242188,298.941406 L419.90625,297.914062 L482.839844,259.015625 L116.941406,259.53125 L17.8242188,298.941406 Z" id="Path-1-copy" stroke="#000000" fill="#69CA14" sketch:type="MSShapeGroup"></path>
            <path d="M12.8242188,239.941406 L414.90625,238.914062 L477.839844,200.015625 L111.941406,200.53125 L12.8242188,239.941406 Z" id="Path-1-copy" stroke="#000000" sketch:type="MSShapeGroup"></path>
            <path d="M12.8242188,179.941406 L414.90625,178.914062 L477.839844,140.015625 L111.941406,140.53125 L12.8242188,179.941406 Z" id="Path-1-copy-2" stroke="#000000" sketch:type="MSShapeGroup"></path>
            <path d="M12.8242188,119.941406 L414.90625,118.914062 L477.839844,80.015625 L111.941406,80.53125 L12.8242188,119.941406 Z" id="Path-1-copy-3" stroke="#000000" sketch:type="MSShapeGroup"></path>
            <path d="M14.8242188,60.7832031 L416.90625,59.7558594 L479.839844,20.8574219 L113.941406,21.3730469 L14.8242188,60.7832031 Z" id="Path-1-copy-4" stroke="#000000" stroke-dasharray="5,5" sketch:type="MSShapeGroup"></path>
            <ellipse id="Oval-1" stroke="#000000" fill="#FFFFFF" sketch:type="MSShapeGroup" cx="262" cy="102" rx="6" ry="2"></ellipse>
            <path d="M420.878906,297.878906 L220.207031,298.621094 L270.023438,286.191406 L266.308594,277.730469 L283.683594,275.503906 L306.035156,267.300781 L373.914062,264.328125 L404.949219,258.867188 L486.695312,258.382812 L420.878906,297.878906 Z" id="Path-3" stroke="#979797" fill="#7D6CE1" sketch:type="MSShapeGroup"></path>
            <path d="M17.8242188,298.941406 L419.90625,297.914062 L482.839844,259.015625 L116.941406,259.53125 L17.8242188,298.941406 Z" id="Path-1-copy" stroke="#000000" stroke-width="2" sketch:type="MSShapeGroup"></path>
            <path d="M147.228516,239.150391 L180.068359,231.71875 L226.398438,226.503906 L264.109375,218.1875 L266.466797,210.970703 L284.6875,205.269531 L297.462891,199.283203" id="Path-5" stroke="#000000" stroke-width="3" sketch:type="MSShapeGroup"></path>
            <path d="M65.5957031,158.173828 L101.392578,155.828125 L118.255859,151.613281 L144.892578,149.998047 L166.943359,152.228516 L203.242188,149.626953 L231.851562,154.457031 L248.599609,153.714844 L271.779297,158.929688" id="Path-7" stroke="#7D6CE1" stroke-width="2" sketch:type="MSShapeGroup"></path>
            <path d="M137.291016,140.738281 L145.714844,143.40332 L160.270508,143.40332 L173.40332,142.224609 L178.175781,146.003906 L191.930664,146.311523 L200.240234,146.125977 L203.28418,149.597656" id="Path-8" stroke="#7D6CE1" stroke-width="2" sketch:type="MSShapeGroup"></path>
            <path d="M87.5585938,23 L96.2987522,44.4667969 L105.933594,23 C105.933594,23 103.548829,15.1269554 96.2987518,15.1269531 C89.0486749,15.1269514 87.5585938,23 87.5585938,23 Z" id="Path-11" stroke="#000000" fill="#FF5050" sketch:type="MSShapeGroup"></path>
        </g>
    </g>
</svg>